<?xml version="1.0" encoding="UTF-8"?>
<svg xmlns="http://www.w3.org/2000/svg" viewBox="0 0 851.09 511.76">
  <defs>
    <style>
      .cls-1 {
        fill: #094;
      }

      .cls-1, .cls-2, .cls-3, .cls-4, .cls-5, .cls-6, .cls-7, .cls-8, .cls-9, .cls-10, .cls-11, .cls-12, .cls-13, .cls-14, .cls-15, .cls-16, .cls-17, .cls-18, .cls-19, .cls-20, .cls-21, .cls-22, .cls-23, .cls-24, .cls-25, .cls-26, .cls-27, .cls-28, .cls-29, .cls-30, .cls-31 {
        font-family: Toppan-BunkyuMidashiGoStd-EB-90ms-RKSJ-H, 'Toppan BunkyuMidashiGoStd';
      }

      .cls-1, .cls-32, .cls-4, .cls-9, .cls-33 {
        font-size: 9px;
      }

      .cls-34 {
        letter-spacing: .25em;
      }

      .cls-2 {
        font-size: 3.17px;
      }

      .cls-2, .cls-3, .cls-8, .cls-18, .cls-35, .cls-19, .cls-21, .cls-22, .cls-23, .cls-24 {
        fill: #3e3a39;
      }

      .cls-3, .cls-36, .cls-27 {
        font-size: 8px;
      }

      .cls-37 {
        letter-spacing: -.5em;
      }

      .cls-38 {
        letter-spacing: .25em;
      }

      .cls-4 {
        fill: #e60012;
      }

      .cls-5 {
        letter-spacing: 0em;
      }

      .cls-5, .cls-6, .cls-7, .cls-12, .cls-15, .cls-19, .cls-26, .cls-28 {
        font-size: 7px;
      }

      .cls-5, .cls-9, .cls-10, .cls-11, .cls-13, .cls-16, .cls-17, .cls-20, .cls-27 {
        fill: #231815;
      }

      .cls-39 {
        stroke-width: 1.5px;
      }

      .cls-39, .cls-40, .cls-41, .cls-42, .cls-43, .cls-44, .cls-45, .cls-35, .cls-46, .cls-47, .cls-48, .cls-49, .cls-50, .cls-51, .cls-52, .cls-53, .cls-54, .cls-55, .cls-56 {
        stroke-miterlimit: 10;
      }

      .cls-39, .cls-40, .cls-41, .cls-42, .cls-44, .cls-46, .cls-47, .cls-49, .cls-50, .cls-51, .cls-52, .cls-53, .cls-54, .cls-55, .cls-56 {
        fill: none;
      }

      .cls-39, .cls-43, .cls-44, .cls-46, .cls-47, .cls-48, .cls-51, .cls-53, .cls-54, .cls-55 {
        stroke-linecap: round;
      }

      .cls-39, .cls-46, .cls-51, .cls-54 {
        stroke: #1d2088;
      }

      .cls-6 {
        fill: #1b6925;
      }

      .cls-6, .cls-7, .cls-12, .cls-15, .cls-26, .cls-28 {
        letter-spacing: 0em;
      }

      .cls-7 {
        fill: #cb3252;
      }

      .cls-8 {
        font-size: 2.66px;
      }

      .cls-57 {
        fill: #fabd00;
      }

      .cls-10 {
        font-size: 21px;
      }

      .cls-11, .cls-23 {
        font-size: 4px;
      }

      .cls-40, .cls-49 {
        stroke-width: .5px;
      }

      .cls-40, .cls-53, .cls-56 {
        stroke: #595757;
      }

      .cls-12 {
        fill: #c8161d;
      }

      .cls-13, .cls-21 {
        font-size: 5px;
      }

      .cls-14, .cls-25, .cls-29, .cls-31 {
        fill: #ea5514;
      }

      .cls-14, .cls-30 {
        font-size: 2px;
      }

      .cls-41 {
        stroke: #231815;
      }

      .cls-41, .cls-52, .cls-53, .cls-56 {
        stroke-width: .25px;
      }

      .cls-42, .cls-43, .cls-44, .cls-45, .cls-48, .cls-50, .cls-55 {
        stroke: #898989;
      }

      .cls-42, .cls-46, .cls-51 {
        stroke-width: 2px;
      }

      .cls-58 {
        letter-spacing: -.5em;
      }

      .cls-15 {
        fill: #629939;
      }

      .cls-59 {
        fill: #727171;
      }

      .cls-60 {
        letter-spacing: -.5em;
      }

      .cls-43 {
        opacity: .98;
      }

      .cls-43, .cls-45, .cls-48, .cls-61 {
        fill: #dcdddd;
      }

      .cls-16 {
        font-size: 3.87px;
        letter-spacing: 0em;
      }

      .cls-17 {
        font-size: 6px;
      }

      .cls-18, .cls-35, .cls-31 {
        font-size: 3px;
      }

      .cls-44, .cls-62 {
        opacity: .81;
      }

      .cls-35 {
        font-family: KozGoPr6N-Regular-90ms-RKSJ-H, 'Kozuka Gothic Pr6N';
        stroke-width: .1px;
      }

      .cls-35, .cls-52 {
        stroke: #3e3a39;
      }

      .cls-47 {
        stroke: #fff;
      }

      .cls-47, .cls-50 {
        stroke-width: 3px;
      }

      .cls-62 {
        fill: #fff9ec;
      }

      .cls-20 {
        font-size: 10px;
      }

      .cls-63 {
        letter-spacing: .25em;
      }

      .cls-22 {
        font-size: 4.12px;
      }

      .cls-64 {
        letter-spacing: .25em;
      }

      .cls-33 {
        letter-spacing: .25em;
      }

      .cls-65 {
        fill: #fffefd;
      }

      .cls-49 {
        stroke: #ea5514;
      }

      .cls-51 {
        opacity: .18;
      }

      .cls-66 {
        letter-spacing: .25em;
      }

      .cls-54 {
        stroke-width: 1.7px;
      }

      .cls-25 {
        font-size: 2.51px;
      }

      .cls-26 {
        fill: #830009;
      }

      .cls-67 {
        letter-spacing: -.5em;
      }

      .cls-68 {
        letter-spacing: .25em;
      }

      .cls-28 {
        fill: #801b75;
      }

      .cls-29 {
        font-size: 3.87px;
      }

      .cls-30 {
        fill: #28333b;
      }
    </style>
  </defs>
  <g id="_x30_5_x5F_background">
    <rect class="cls-65" x=".7" y="1.53" width="850.39" height="510.24"/>
  </g>
  <g id="_x30_6_x5F_outline">
    <path id="_x30_6_x5F_01_x5F_Line" class="cls-44" d="M720.92,287.24c-.84,2.4-7.92-.16-15.32,2.3-8.16,2.71-15.72,11.21-14.55,17.36.89,4.68,6.49,6.28,6.13,11.23-.11,1.53-.74,2.69-2.3,4.85-7.36,10.22-12.1,10.37-16.6,17.87-2.34,3.92-2.67,6.57-5.11,7.15-2.5.59-5.89-1.32-6.64-3.83-.72-2.42,1.47-3.85,4.09-9.96,1.52-3.56,2.84-7.9,2.3-8.17-.67-.33-3.45,5.8-9.45,13.53-1.38,1.78-5.74,7.28-12.51,13.28-2.65,2.35-6,5.29-10.98,8.43-6.64,4.18-10.91,6.87-17.11,7.66-4.39.56-6.26-.28-11.23,1.02-4.12,1.08-7,2.74-8.43,3.57-15.54,9.11-22.39,15.17-29.36,18.38-25.86,11.93-56.82,19.98-76.6,27.57-10.92,4.2-8.48.72-31.91,4.34-30.83,4.76-34.45,6.98-49.53,7.4-12.57.35-12.06-1.13-36.51-1.79-15.81-.42-23.72-.63-31.91,0-8.05.62-42.79,3.3-74.04,17.62-3.68,1.69-8.89,2.3-17.32,1.53-8.36-.77-14.92-2.4-23.28-8.43-15.09-10.89-25.96-18.73-38.55-24.51-10.07-4.63-18.76-8.62-30.64-8.43-9.69.16-13.15,2.97-26.81,3.83-12.66.8-13.35-1.39-23.49-1.02-24.08.87-46.82,14.16-50.04,16.09-6.77,4.04-17.26,11.28-22.47,7.66-2.08-1.45-2.21-3.86-5.11-4.85-4.09-1.4-7.27,2.21-10.98.26-.23-.12-2.61-1.41-2.55-3.06.09-2.81,7.11-3.05,8.17-7.15.59-2.26-1.15-3.73,0-5.62,1.02-1.68,2.85-1.27,3.57-2.55,1.14-2.02-1.57-6.25-4.85-9.19-6.96-6.22-9.06-5.19-13.27-9.74-1.42-1.54-6.77-2.4-5.62-15.79,1.27-14.81,1.91-22.21,5.87-30.64,4.63-9.83,7.7-8.79,17.36-25.02,4.67-7.84,4.14-8.4,7.66-13.79,5.57-8.53,10.5-12.66,20.17-21.7,18.76-17.54,28.16-26.45,29.11-32.94,1.3-8.88-3.36-13.4.51-22.21,2.39-5.44,4.75-5.07,10.47-12.26,6.79-8.54,5.9-12.16,13.79-26.55,4.83-8.82,7.25-13.23,11.23-17.62,10.62-11.69,19.66-11.99,21.45-20.68.88-4.25,2.4-8.33,3.57-12.51.52-1.87,1.1-3.93,2.55-4.34,1.65-.47,3,1.58,5.62,3.06,3.38,1.92,6.79,1.72,9.96,1.53,8.06-.47,14.33-6.73,16.09-8.43,18.1-17.43,39.84-13.94,73.28-41.11,4.48-3.64,9.09-7.77,17.11-12.51,10.46-6.19,18.55-10.98,29.11-10.98,9.42,0,17.96,3.82,28.85,8.68,6.54,2.92,8.32,4.41,13.28,5.36,8.31,1.6,11.72-.97,21.96-2.3,16.41-2.13,18.28,3.07,34.72.51,8.97-1.4,8.77-3,17.36-4.09,13.07-1.65,17.38,1.57,27.57,1.79,21.97.48,27.55-13.93,57.19-16.85,3.6-.36,8.65-.65,14.81.51,5.58,1.05,16.81,3.16,23.74,12.51,5.62,7.57,5.62,16.12,5.62,21.96,0,9.25-2.53,11.1-4.6,21.96-2.16,11.36.14,11.84-.26,37.02-.25,15.98-1.22,18.37.26,26.55,1.42,7.91,3.1,16.56,9.96,22.21,3.44,2.84,4.38,2.92,14.75,8.49,1.54.83,7.83,4.02,19.15,9.57,25.23,12.38,26.81,17.3,43.72,22.28,5.67,1.67,14.27,2.92,21.45-1.53"/>
    <path id="_x30_6_x5F_02_x5F_paint" class="cls-62" d="M544.49,73.53c5.62,7.57,5.62,16.12,5.62,21.96,0,9.25-2.53,11.1-4.6,21.96-2.16,11.36.14,11.84-.26,37.02-.25,15.98-1.22,18.37.26,26.55,1.42,7.91,3.1,16.56,9.96,22.21,3.44,2.84,4.38,2.92,14.75,8.49,1.54.83,7.83,4.02,19.15,9.57,25.23,12.38,26.81,17.3,43.72,22.28,5.67,1.67,14.27,2.92,21.45-1.53,7.72-4.79,5.48-11.49,13.79-19.4,6.99-6.67,10.51-3.76,25.79-12,5.29-2.85,12.97-7.07,20.68-14.55,9.94-9.66,8.67-13.82,17.62-20.68,2.68-2.05,3.75-2.42,20.17-9.45,21.24-9.09,27.37-11.88,30.13-9.19.91.88.41,1.34,1.28,9.45.98,9.23,1.9,11.22.51,13.79-1.55,2.86-4.12,3.04-8.17,5.11-10.4,5.32-18.12,16.79-15.83,21.45,1.43,2.9,6.05,1.76,7.91,5.62,1.53,3.16-.15,6.86-.51,7.66-2.59,5.72-8.04,5.82-14.04,9.96-9.44,6.51-5.43,12.78-14.81,20.94-9.05,7.86-15.17,4.09-19.66,11.49-3.17,5.22-4.82,14.85-.77,20.94,1.23,1.85,2.7,2.93,2.3,4.09-.84,2.4-7.92-.16-15.32,2.3-8.16,2.71-15.72,11.21-14.55,17.36.89,4.68,6.49,6.28,6.13,11.23-.11,1.53-.74,2.69-2.3,4.85-7.36,10.22-12.1,10.37-16.6,17.87-2.34,3.92-2.67,6.57-5.11,7.15-2.5.59-5.89-1.32-6.64-3.83-.72-2.42,1.47-3.85,4.09-9.96,1.52-3.56,2.84-7.9,2.3-8.17-.67-.33-3.45,5.8-9.45,13.53-1.38,1.78-5.74,7.28-12.51,13.28-2.65,2.35-6,5.29-10.98,8.43-6.64,4.18-10.91,6.87-17.11,7.66-4.39.56-6.26-.28-11.23,1.02-4.12,1.08-7,2.74-8.43,3.57-15.54,9.11-22.39,15.17-29.36,18.38-25.86,11.93-56.82,19.98-76.6,27.57-10.92,4.2-8.48.72-31.91,4.34-30.83,4.76-34.45,6.98-49.53,7.4-12.57.35-12.06-1.13-36.51-1.79-15.81-.42-23.72-.63-31.91,0-8.05.62-42.79,3.3-74.04,17.62-3.68,1.69-8.89,2.3-17.32,1.53-8.36-.77-14.92-2.4-23.28-8.43-15.09-10.89-25.96-18.73-38.55-24.51-10.07-4.63-18.76-8.62-30.64-8.43-9.69.16-13.15,2.97-26.81,3.83-12.66.8-13.35-1.39-23.49-1.02-24.08.87-46.82,14.16-50.04,16.09-6.77,4.04-17.26,11.28-22.47,7.66-2.08-1.45-2.21-3.86-5.11-4.85-4.09-1.4-7.27,2.21-10.98.26-.23-.12-2.61-1.41-2.55-3.06.09-2.81,7.11-3.05,8.17-7.15.59-2.26-1.15-3.73,0-5.62,1.02-1.68,2.85-1.27,3.57-2.55,1.14-2.02-1.57-6.25-4.85-9.19-6.96-6.22-9.06-5.19-13.27-9.74-1.42-1.54-6.77-2.4-5.62-15.79,1.27-14.81,1.91-22.21,5.87-30.64,4.63-9.83,7.7-8.79,17.36-25.02,4.67-7.84,4.14-8.4,7.66-13.79,5.57-8.53,10.5-12.66,20.17-21.7,18.76-17.54,28.16-26.45,29.11-32.94,1.3-8.88-3.36-13.4.51-22.21,2.39-5.44,4.75-5.07,10.47-12.26,6.79-8.54,5.9-12.16,13.79-26.55,4.83-8.82,7.25-13.23,11.23-17.62,10.62-11.69,19.66-11.99,21.45-20.68.88-4.25,2.4-8.33,3.57-12.51.52-1.87,1.1-3.93,2.55-4.34,1.65-.47,3,1.58,5.62,3.06,3.38,1.92,6.79,1.72,9.96,1.53,8.06-.47,14.33-6.73,16.09-8.43,18.1-17.43,39.84-13.94,73.28-41.11,4.48-3.64,9.09-7.77,17.11-12.51,10.46-6.19,18.55-10.98,29.11-10.98,9.42,0,17.96,3.82,28.85,8.68,6.54,2.92,8.32,4.41,13.28,5.36,8.31,1.6,11.72-.97,21.96-2.3,16.41-2.13,18.28,3.07,34.72.51,8.97-1.4,8.77-3,17.36-4.09,13.07-1.65,17.38,1.57,27.57,1.79,21.97.48,27.55-13.93,57.19-16.85,3.6-.36,8.65-.65,14.81.51,5.58,1.05,16.81,3.16,23.74,12.51Z"/>
  </g>
  <g id="_x30_7_x5F_line">
    <path id="_エコー入口" data-name="エコー入口" class="cls-56" d="M118.12,360.45c-2.14-3.87-.84-16.8-4.09-19.21"/>
    <path id="_エコー上部_x2F_中間部" data-name="エコー上部_x2F_中間部" class="cls-56" d="M168.61,276.53c-5.03.43-19.67-6.43-23.3-4.29"/>
    <path id="_エコー中間部_x2F_下部" data-name="エコー中間部_x2F_下部" class="cls-56" d="M207.01,256.62c-2.65-4.29-3.16-20.45-6.7-22.72"/>
    <path id="_エコー出口" data-name="エコー出口" class="cls-56" d="M329.52,236.54c-3.71-.48-9.7-7.39-13.47-6.49"/>
    <path id="_山頂_x2F_林間" data-name="山頂_x2F_林間" class="cls-56" d="M39.35,398.3c.98,1.53,0,3.49-.99,4.98-.9,1.36-3.29,4.04-4.94,3.92"/>
    <path id="_ダスキン上部_x2F_下部" data-name="ダスキン上部_x2F_下部" class="cls-56" d="M280.87,302.54c-5.06.74-21.12-4.81-24.46-2.53"/>
    <path id="_ダスキン出口" data-name="ダスキン出口" class="cls-56" d="M358.84,235.51c1.62-.98,5.44-2.95,9.78-2,2.94.64,4.88,2.36,6.64,4.09,3.12,3.07,7.9,8.36,12.94,16.68"/>
    <path id="_ダスキン入口" data-name="ダスキン入口" class="cls-56" d="M215.16,405.46c-5.06.74-21.12-4.81-24.46-2.53"/>
    <path id="_上部_x2F_ちょい壁" data-name="上部_x2F_ちょい壁" class="cls-56" d="M230.69,408.43c-1.2,4.97-12.34,17.8-11.47,21.75"/>
    <path id="_ちょい壁_x2F_大壁" data-name="ちょい壁_x2F_大壁" class="cls-56" d="M273.15,420.67c2.67,4.36,3.86,21.31,7.27,23.49"/>
    <path id="_大壁_x2F_二の壁" data-name="大壁_x2F_二の壁" class="cls-56" d="M359.28,419.29c.48.75,1.32,2.26,1.51,4.34.24,2.63-.69,4.63-1.11,5.42"/>
    <path id="_二の壁_x2F_馬の背" data-name="二の壁_x2F_馬の背" class="cls-56" d="M486.41,413.25c2.3,1.18,3.37,2.54,3.91,3.57.58,1.08.83,2.26,1.96,2.89.76.42,1.58.41,2.13.34"/>
    <path id="_馬の背_x2F_最後の壁" data-name="馬の背_x2F_最後の壁" class="cls-56" d="M609.39,362.87c2.58.15,3.88,1,4.59,1.79.53.58.74,1.13,1.62,2.13.85.97,1.7,1.63,2.3,2.04"/>
    <path id="_スイング_x2F_ファミリー" data-name="スイング_x2F_ファミリー" class="cls-56" d="M402.15,223.39c5.19-1.63,11.67-2.68,21.79,0,15.54,4.12,23.23,14.79,25.7,16.68"/>
    <path id="_スイング上部_x2F_中間部" data-name="スイング上部_x2F_中間部" class="cls-56" d="M320.2,228.06c3.4-.96,9.46-3.18,15.22-8.43,4.08-3.72,6.55-7.62,8-10.38"/>
    <path id="_スイング中間部_x2F_下部" data-name="スイング中間部_x2F_下部" class="cls-56" d="M433.13,248.4c.81-1.63,2.13-3.62,4.26-5.28,7.13-5.55,16.73-2.22,17.7-1.87"/>
    <path id="_スイング下部_x2F_エプロン" data-name="スイング下部_x2F_エプロン" class="cls-56" d="M519.4,335.29c1.59.25,6.52.83,11.77-1.95,4.96-2.63,7.26-6.7,8-8.17"/>
    <path id="_ばらん" data-name="ばらん" class="cls-56" d="M497.13,298.1c1.78,3.51,3.89,5.4,5.45,6.47,2.76,1.89,5.07,2.07,6.64,4.43,1.14,1.72,2.95,2.76,2.88,4.04"/>
    <path id="_ウッディー_x2F_スイング上部" data-name="ウッディー_x2F_スイング上部" class="cls-56" d="M232.28,162.61c-4.63,4.25-6.04,8.04-6.47,10.72-.29,1.83-.07,2.83-.34,5.28-.48,4.41-1.93,7.85-3.06,10.04"/>
    <path id="_ウッディー_x2F_ファミリー" data-name="ウッディー_x2F_ファミリー" class="cls-56" d="M267.04,84.28c2.54,4.67,4.89,8.25,6.59,10.69,3.07,4.41,4.6,6.61,5.2,7.39,2.53,3.29,3.96,4.74,4.6,7.49.5,2.16.11,3.45,0,5.36-.17,2.87.28,7.04,3.23,12.43"/>
    <path id="_ファミリー中間部_x2F_下部" data-name="ファミリー中間部_x2F_下部" class="cls-56" d="M461.13,235.81c-.09-4.13.93-7.1,2.3-9.28,1.94-3.08,4.04-3.7,5.79-6.72,1.69-2.93,1.95-6.22,1.62-9.28"/>
    <path id="_ファミリー上部_x2F_中間部" data-name="ファミリー上部_x2F_中間部" class="cls-56" d="M353.13,196.34c2.31-2.9,5.94-6.44,11.15-7.74,3.4-.85,5.21-.18,8.34-.68,3.67-.59,8.64-2.7,14.04-9.62"/>
    <path id="_林間_x2F_ウッディー中間部" data-name="林間_x2F_ウッディー中間部" class="cls-56" d="M113.52,236.68c4.03-5.42,5.45-10.29,5.74-14.33.28-3.9-.6-5.69,0-9.02.94-5.21,4.64-9.34,9.19-12.6"/>
    <path id="_林間_x2F_ウッディー下部" data-name="林間_x2F_ウッディー下部" class="cls-56" d="M146.22,183.63c3.3-1.8,8.18-4.65,13.71-8.68,9.79-7.12,13.18-11.79,19.15-17.19,16.82-15.22,24.5-9.53,43.32-25.45,10.38-8.78,8.51-10.92,16.51-15.49,10.11-5.78,18.1-5.24,28.34-13.28,3.82-3,6.5-6.05,8.17-8.17"/>
    <path id="_メルヘン線下" data-name="メルヘン線下" class="cls-56" d="M550.97,198.09c.21,3.42,1.11,6.05,1.85,7.72.94,2.15,1.89,4.31,4.06,5.99,2.35,1.82,3.31.89,6.98,2.72,2.72,1.36,2.6,2.07,6.98,5.11,3.39,2.35,3.93,2.24,6.3,3.91,1.97,1.39,4.7,3.66,7.49,7.32"/>
    <path id="_メルヘン23_x2F_20入口" data-name="メルヘン23_x2F_20入口" class="cls-56" d="M292.87,76.06c5.79,1.43,7.59,3.58,8.17,5.28.81,2.36-.64,4.19.34,8.68.24,1.08.56,2.56,1.51,4.17,1.81,3.07,3.61,2.78,6.66,5.87,1.27,1.29,2.49,3.3,4.94,7.32,1,1.64,1.95,3.21,3.06,5.45,1.99,3.99,1.52,4.16,2.55,5.45,1.85,2.31,3.25,1.64,7.66,4.43,2.21,1.4,3.7,2.74,5.96,4.77,2.12,1.9,3.82,3.67,5.11,5.11"/>
    <path id="_メルヘン上部_x2F_中間部" data-name="メルヘン上部_x2F_中間部" class="cls-52" d="M521.9,61.67c1.8.91,3.9,2.38,4.42,4.63.51,2.21-.86,3.58-1.02,5.96-.14,2.07.63,4.97,4.6,8.68"/>
    <path id="_メルヘン中間部_x2F_下部" data-name="メルヘン中間部_x2F_下部" class="cls-53" d="M548.83,193.96c2.78,4.96,1.36,11.22.69,13.34-.69,2.2-2.02,3.26-2.81,6.26-.7,2.69-.49,5.09-.19,6.7"/>
    <path id="_メルヘン23出口" data-name="メルヘン23出口" class="cls-56" d="M334.71,85.18c3.07,1.28,7.75,2.79,13.53,2.89,1.25.02,1.28-.04,8.51-.6,10.36-.79,13.23-.88,15.91.94,1.78,1.2,2.82,2.8,3.4,3.91"/>
    <path id="_メルヘン20出口" data-name="メルヘン20出口" class="cls-56" d="M431.59,88.26c3.07,1.28,7.75,2.79,13.53,2.89,1.25.02,1.28-.04,8.51-.6,10.36-.79,13.23-.88,15.91.94,1.78,1.2,2.82,2.8,3.4,3.91"/>
  </g>
  <g id="_x30_8_x5F_wind">
    <line id="_防風ネット" data-name="防風ネット" class="cls-48" x1="64.35" y1="411" x2="96.52" y2="404.78"/>
    <line id="_防風ネット-2" data-name="防風ネット" class="cls-48" x1="126.69" y1="399.03" x2="135.92" y2="397.29"/>
    <line id="_防風ネット-3" data-name="防風ネット" class="cls-48" x1="126.63" y1="404.49" x2="140.79" y2="401.66"/>
    <line id="_防風ネット-4" data-name="防風ネット" class="cls-48" x1="65.96" y1="416.1" x2="111.84" y2="407.17"/>
  </g>
  <g id="_x30_9_x5F_objects">
    <path id="_あさくら" data-name="あさくら" class="cls-40" d="M567.09,299.12c4.26,1.19,4.57,19.81,14.39,24.59,6.66,3.25,13.29.71,22.23-2.72,5.8-2.22,19.48-12.1,28.4-20.17"/>
    <path id="_x38_さんろく" class="cls-41" d="M657.89,294.27c-2.83.3-5.19,2.18-6.04,4.77-.72,2.18-.34,4.83,1.36,6.64,2.1,2.23,5.77,2.7,8.77.94"/>
    <path id="_そりコース" data-name="そりコース" class="cls-41" d="M646.09,264.67c-.97-.05-2.42-.11-4.2-.09-6.3.04-9.49.03-10.47,1.7-1.03,1.77,1.18,3.35.34,7.57-.31,1.57-.84,2.46-.34,3.06.74.9,2.86.11,4.85-.34,2.26-.51,5.51-.84,9.79,0"/>
    <path id="_スノーエスカレーター" data-name="スノーエスカレーター" class="cls-41" d="M649.13,251.98c.19-.76.88-3.1,3.12-4.73,3.14-2.29,6.75-1.32,7.4-1.15,2.24.6,3.5,1.87,5.68,4.09,1.46,1.48,2.45,2.52,2.49,3.96.04,1.6-.19,2.74-.19,2.74-.12.6-.31,1.24,0,1.91.2.43.43.49.47.75.08.44-.43,1.14-2.81,2.3"/>
    <path id="_メルヘン出口" data-name="メルヘン出口" class="cls-41" d="M564.92,277.93c2.77,3.5-1.59,10.4-2.09,11.32-.63,1.17-.22,2.13-.89,3.45-.7,1.38.04,3.62.89,4.98"/>
    <path id="_メルヘン作業道" data-name="メルヘン作業道" class="cls-41" d="M482.91,205.22c1.28.36,2.26.73,2.94,1,.57.23,1.14.48,2.29.99.54.24.85.37,1.3.58.52.24,1.25.57,2.16,1.04.43.22.78.41,1.03.55"/>
    <path id="_メルヘン9号柱連絡路出口" data-name="メルヘン9号柱連絡路出口" class="cls-41" d="M531.19,242.19c-.57,1.77-.67,3.26-.66,4.26.02,1.75.4,3.12.74,4.38.31,1.11.64,2.02.91,2.68"/>
    <path id="_チャレンジ入り口" data-name="チャレンジ入り口" class="cls-41" d="M463.77,207.72c-1.05-.92-2.65-2.58-3.74-5.11-.58-1.34-.87-2.58-1.02-3.57"/>
    <path id="_チャレンジ区切り" data-name="チャレンジ区切り" class="cls-41" d="M480.11,213.34c4.36,1.87,7.72,3.71,10.04,5.11,1.94,1.16,3.91,2.46,7.83,5.04,1.84,1.21,2.9,1.91,4.42,2.96,1.77,1.22,4.27,2.94,7.36,5.34,1.47,1.14,2.68,2.12,3.53,2.83"/>
    <path id="_山頂" data-name="山頂" class="cls-41" d="M50.33,402.77c-5.97,11.98-12.52.93-10.09-1.34"/>
    <path id="_x36_山頂" class="cls-41" d="M109.2,373.26c.87-2.36,6.75-9.27,6.62-10.96"/>
    <path id="_エコー上" data-name="エコー上" class="cls-41" d="M68.03,402.06c-12.16,4.89-8.67-7.11-5.53-7.23"/>
    <path id="_エコー6号柱" data-name="エコー6号柱" class="cls-41" d="M298.75,243.07c-1.59.91-5.76-.04-7,1.43"/>
    <path id="_エコー_xFF18_号柱" data-name="エコー_xFF18_号柱" class="cls-41" d="M285.59,282.4c-3.73,3.33-12.06,2.47-15.32,7.27"/>
    <path id="_エコー13号柱" data-name="エコー13号柱" class="cls-41" d="M135.21,332.47c.44-1.37,3.74-3.76,3.6-5.11"/>
    <path id="_エコー滑り込み外側" data-name="エコー滑り込み外側" class="cls-41" d="M365.43,218.69c-.5-.34-2.3-1.67-3-4.21-.65-2.38.07-4.33.32-4.91"/>
    <path id="_エコー滑りこみ内側" data-name="エコー滑りこみ内側" class="cls-41" d="M380.35,214.39c-1.08.6-2.67,1.52-4.52,2.78-2.53,1.72-3.24,2.48-4.3,2.28-2.04-.37-2.9-3.8-3-4.21-.55-2.23.02-4.11.32-4.91"/>
    <path id="_エコーステージ" data-name="エコーステージ" class="cls-41" d="M389.75,213.7c.62-.28,2.37-1.16,3.45-3.19.39-.73,1.44-2.72.57-4.91-.66-1.69-2.25-2.82-3.64-3.19-.84-.22-1.38-.11-2.94-.54-.94-.26-1.17-.42-1.85-.64-.48-.15-3.14-1.01-5.81-.19-.99.3-1.1.57-2.87,1.15-.64.21-1.4.46-2.05.57-.77.13-2.51.25-4.91-1.15"/>
    <path id="_ダウンヒル防風ネット" data-name="ダウンヒル防風ネット" class="cls-41" d="M66.49,409.68c5.09-.93,9.31-1.84,12.16-2.47,12.38-2.76,11.73-2.2,17.32-3.74,5.75-1.58,8.62-1.22,11.8-.51,4.11.92,6.84,4.49,8.51,7.4"/>
    <path id="_ダウンヒル上部_x2F_ダスキン" data-name="ダウンヒル上部_x2F_ダスキン" class="cls-41" d="M134.28,391.32c6.02,1.64,14.67,6.2,21.57,7.54,5.41,1.05,10.61,1.89,15.57,2.55"/>
    <path id="_ビギナーズ" data-name="ビギナーズ" class="cls-41" d="M151.6,194.78c.83.3,2.06.82,3.4,1.7,1.16.76,1.57,1.25,2.21,1.19,1.18-.1,1.72-1.87,2.55-3.4.39-.71.92-1.52,6.47-6.13,6.39-5.3,5.58-4.14,6.98-5.62,2.77-2.93,3.81-5.24,7.49-7.66.84-.55,1.57-.95,2.04-1.19"/>
  </g>
  <g id="_x31_0_x5F_borderline">
    <path id="_メルヘン中間部" data-name="メルヘン中間部" class="cls-48" d="M323.86,122.26c-.28,1.77,2.87,2.67,7.28,6.77,5.24,4.87,4.43,7,8.17,8.68,3.34,1.5,4.96.25,8.55,2.3,1.91,1.09,3.02,2.34,4.72,4.34,4.36,5.13,7.01,8.64,8.68,10.72,6.45,8.06,7.58,6.52,10.85,12,1.91,3.2,1.61,3.88,5.23,10.6,3.54,6.56,4.67,7.49,5.23,7.91,3.31,2.47,5.3,1,12.26,2.94,4.92,1.37,8.75,3.44,10.85,4.6,6.05,3.32,7.67,5.66,11.49,5.49.77-.03,3.76-.17,5.87-2.3.3-.3.75-.81,1.28-1.79,2.63-4.86.57-9,2.81-10.72.67-.52,1.64-.51,3.57-.51,3.78,0,4.96,1.42,7.15,1.15,1.95-.24,3.05-1.62,5.23-4.09,4.51-5.09,7.4-8.35,10.85-11.23,4.78-3.99,6.66-3.95,8.3-7.15.54-1.06,1.21-2.78,2.49-2.94,1.14-.14,2.53.97,2.49,1.92-.03.89-1.54,1.16-2.17,1.91-3.23,3.86-2.34,2.95-7.28,6.67-2.25,1.69-2.12,2.94-5.47,5.06-2.89,1.83-4.96,6.55-10.23,11.79-.71.7-.07,2.87,1.28,4.31.45.48.76.64,2.94,2.17,1.63,1.15,2.36,1.69,2.68,1.91,3.32,2.3,8.88,2.07,14.55,3.57,1.92.51.44.31,8.04,3.32,8.77,3.47,11.32,3.96,13.91,3.32,1.08-.26,3.38-1.02,4.85-1.53,2.27-.79,4.34-2.59,4.85-3.16,3.79-4.18,3.37-4.74,8.3-7.06.68-.32,1.95-1.04,2.81-1.32,7.41-2.41,15.05-1.06,18.97-.74,8.78.73,13.52,2.47,14.47.66.44-.83-.19-1.93-.51-2.55-2.54-4.92-1.15-9.23-.89-17.36.22-6.85-.75-4.74-1.79-20.81-.21-3.24-.35-8.29-.64-18.38-.29-10.18-.3-13.94,1.28-18.89,1.58-4.97,2.53-4.13,3.7-8.3,3.51-12.44-4-23.23-5.11-24.77-2.97-4.14-5.35-5.09-6.13-5.36-3.15-1.11-5.76-.16-9.57.64-5.96,1.25-7.02.5-14.3,1.28-11.44,1.22-15.12,3.74-28.98,6.51-19.85,3.96-25.15,1.35-29.23,6.77-4.48,5.93-4.17,4.17-8.21,7.9-2.77,2.55-5.31,5.4-10.13,7.79-5.15,2.55-5.96,2.68-11.79,3.36-4.79.56-3.06.21-8.94,1.12s-9.66,1.63-15.96,4.21c-11.81,4.84-10.58,7.61-18.13,9.45-2.06.5-10.89,2.42-19.91-1.28-4.66-1.91-4.35-3.25-8.94-4.6-7.23-2.11-13.19-.28-16.6.77-2.69.83-4.89,1.53-5.11,2.94Z"/>
    <path id="_スゥイング_xFF11_" data-name="スゥイング_xFF11_" class="cls-48" d="M262.16,128.62c5.39-3.03,13.67-7.69,23.23-7.4,9.35.28,15.91,5.17,23.49,10.98,12.98,9.95,14.73,16.45,34.09,39.19,9.73,11.44,14.6,17.16,17.36,19.4,1.09.88,1.47,1.43,2.3,2.43,1.71,2.06,3.65,4.38,3.48,6.98-.08,1.26-.54.76-1.44,3.42-1.3,3.86-1.1,7.23-.77,8.26.02.06.11.32.13.67,0,.06.08,1.19-.44,1.76-.5.55-1.3.33-2.94.32-1.52-.01-2.05.16-3.06.21-2.21.11-14.45.03-31.22-.33-14.42-2.54-20.48-4.67-27.45-7.37-17.5-6.79-16.49-10.08-37.06-18.58-.31-.13-6.21-5.16-18.09-10.52-8.95-4.04-16.32-7.46-16.21-11.74.01-.56.15-.99.26-1.28,4.41-12.59,20.55-26.04,20.55-26.04,6.37-5.31,9.56-7.96,13.79-10.34Z"/>
    <path id="_すべりこみ" data-name="すべりこみ" class="cls-48" d="M368.63,204.23c-.64,1.72-.6,2.22-1.34,5.17-.25.98-.38,1.43-.32,2.14.02.3.17,2.1,1.15,2.52.76.33,1.31-.47,4.05-2.11,2.13-1.27,3.18-1.61,3.28-2.51.04-.39-.13-.62-.63-1.45-1.52-2.51-2.03-3.82-3.67-5.43-.37-.36-.69-.64-1.07-.6-.39.04-.77.42-1.45,2.26Z"/>
    <path id="_エコーした島" data-name="エコーした島" class="cls-48" d="M385.43,218.94c1.07-3.45,5.14-4.45,5.62-4.55,1.41-.32,1.41.07,4.34,0,4.1-.1,4.56-.89,6.38-.38,1.8.5,4.19,2.05,4.47,4.38.3,2.48-1.96,4.39-2.21,4.6-1.17.96-2.47,1.3-9.32,1.15-7.19-.16-8.53-.59-9.19-1.7-.77-1.28-.28-2.87-.09-3.49Z"/>
    <path class="cls-48" d="M393.94,199.51c-.14-1.47,1.02-2.89,2.36-3,1.67-.14,3.25,1.77,2.81,3.45-.33,1.24-1.73,2.22-3.13,1.91-1.14-.25-1.94-1.28-2.04-2.36Z"/>
    <path class="cls-48" d="M465.56,208.22c.34-1.62,3.72-2.41,6.17-2.21.39.03,1.19.12,4.85,1.7,5.25,2.27,5.4,2.86,5.4,3.15,0,1.22-2.88,2.1-3.66,2.34-.89.27-4.38,1.28-8.17-.47-1.59-.73-4.96-2.75-4.6-4.51Z"/>
    <path class="cls-48" d="M464.22,223.24c.31-.78,1.17-1.42,1.96-1.23.98.23,1.57,1.68,1.02,2.68-.44.81-1.61,1.27-2.43.77-.74-.46-.84-1.5-.55-2.21Z"/>
    <path id="_メル119" data-name="メル119" class="cls-48" d="M540.92,201.57c-3.32-1.85-11.77-7.03-22.14-7.87s-14.13,2.96-15.84,4.36c-2.77,2.26-1.77,1.64-7.77,7.46-1.82,1.76-2.54,2.59-2.55,3.74-.04,2.86,4.25,4.33,11.83,9.36,2.4,1.59,5.88,3.92,9.79,7.32,3.68,3.21,8.21,7.77,10.98,10.55,4.08,4.11,5.62,5.83,6.64,5.36,1.3-.6.27-1.72.96-7.54.33-2.76,1.61-6.17,3.32-11.04,2.73-7.8,2.76-9.25,4.15-13.76,2.09-6.79,4.03-6.06.64-7.95Z"/>
    <path id="_メル91" data-name="メル91" class="cls-43" d="M543.51,217.76c-2.01,1.33-4.85,5.04-5.95,12.27-1.17,7.69-.92,12.55-.43,16.17.37,2.68.57,4.06,1.36,5.62,2.21,4.36,5.78,4.71,9.79,7.91,3.13,2.5,5.04,6.38,8.85,14.13,3.77,7.66,4.96,12.59,8.34,13.02.14.02,1.7.19,2.89-.77,2.14-1.71.94-5.29,1.19-9.79.25-4.49,1.69-5.01,3.57-11.32.74-2.49,2.53-8.45,2.3-15.23-.11-3.27-.47-10.94-5.79-18.47-5.15-7.3-11.86-10.08-15.66-11.66-4.82-2-7.22-4.04-10.48-1.88Z"/>
    <path id="_メル61" data-name="メル61" class="cls-48" d="M590.97,229.02c-.9-.44-6.69-3.66-7.66-2.9-1.59,1.25-.84,3.99-.77,9.7.03,2.32-.1.92-.26,7.02-.14,5.71-.21,8.57,0,12,.33,5.35.81,4.68.64,7.02-.37,5.07-2.44,5.53-3.45,11.23-.87,4.93.52,5.48-.89,8.81-.85,2.01-1.86,2.99-3.19,6.38-.65,1.65-1.04,2.66-1.28,3.96-.72,4,.49,8.59,3.06,11.87,2.17,2.77,3.33,2.06,5.11,4.98,1.34,2.2,1.11,3.3,2.81,5.74.78,1.13,1.95,2.81,3.7,3.7,2.63,1.34,5.68.46,8.81-.77,9.59-3.75,16.31-9.26,17.62-10.34,6.21-5.17,9.31-9.32,11.11-12.13,2.79-4.35,3.25-6.69,3.32-8.43.1-2.5-.49-6.07-2.68-9.06-1.69-2.32-3.11-2.6-4.47-5.36-.76-1.55-1.66-3.38-1.02-4.98.27-.67,1.17-2.2,9.19-3.7,6.67-1.25,8.72-.7,9.7-2.3,1.31-2.13-.04-6.61-2.68-8.17-4.27-2.52-7.36-3.44-8.68-4.09-13.85-6.73-26.54-14.57-38.04-20.2Z"/>
    <path id="_メル2320" data-name="メル2320" class="cls-48" d="M350.84,93.35h0c3.87-1.54,9.71-3.45,16.98-4.21,6.09-.64,7.7.1,16.09.13,11.36.04,21.86-1.26,26.04-1.79,6.5-.82,13.11.47,19.66.26.76-.03,2.95-.11,4.09,1.28,1.11,1.36.61,3.42.51,3.83-.74,3.01-3.6,4.6-5.87,5.87-4.48,2.5-8.64,2.77-9.45,2.81-4.48.24-5.07-1.15-8.94-.89-1.1.07-2.86.31-9.96,3.83-6.41,3.18-6.65,3.82-12.64,6.77-1.25.61-3.98,1.86-9.45,4.34-4.73,2.15-7.1,3.23-7.53,3.32-1.31.28-4.72.84-16.09-3.19-7.62-2.7-6.64-3.15-9.96-3.83-6.85-1.4-13.24.06-16.34.77-5.89,1.34-9.27,3.27-12.89,1.4-1.34-.69-2.36-1.71-3.06-2.43-3.05-3.06-2.25-4.64-4.6-7.28-2.92-3.28-5.82-2.7-6.89-5.74-.11-.3-.79-2.25.13-3.45,1.35-1.76,5.25-.7,8.04-.13,6.31,1.29,11.18.95,20.94.26,5.35-.38,7.7-1.03,15.19-1.28,2.26-.07,4.97.12,6-.64"/>
    <path class="cls-48" d="M286.83,78.9c.12-.1-.2-1.62.43-1.79.93-.25,1.64-.66,2.55-1.62,1.37-1.43,4.22-2.09,5.53-.85,1.43,1.35.31,4.25-.09,5.28-.34.88-1.55,4.02-3.66,4.17-2.79.19-5.03-4.97-4.77-5.19Z"/>
    <path class="cls-48" d="M285.38,102.22c.07-1.74,2.04-3.33,2.98-2.98.53.2.67,1.27.94,3.4.3,2.4.46,3.73-.09,4-.72.35-2.18-1.36-2.47-1.7-.72-.84-1.41-1.65-1.36-2.72Z"/>
    <path class="cls-48" d="M298.14,107.32c.49-.71,1.92-.86,2.55-.26.94.9-.05,3.31-.94,3.4-.88.09-2.35-2.08-1.62-3.15Z"/>
    <path class="cls-48" d="M357.29,170.22c.31-.39,1.23-.14,1.7.09,2.03.97,2.09,4.58,1.45,4.85-.8.34-3.9-3.99-3.15-4.94Z"/>
    <path id="_スゥイングミニ" data-name="スゥイングミニ" class="cls-48" d="M522.44,274.34c-2.16,2.32-3.85,4.02-6.89,12.26-1.92,5.2-4.12,7.3-6.26,12.64-.21.51-.64,1.64-.13,2.43.87,1.32,3.18,3.13,5.74,4.21,3.06,1.29,4.76.97,8.3,1.53,6.34,1,9.73,3.03,16.34,1.4.95-.23,1.99-.54,2.43-1.4.95-1.89-1.91-4.6-4.34-8.43-2.87-4.53-1.88-5.48-4.6-11.36-1.48-3.21-7.71-16.39-10.6-13.28Z"/>
    <path id="_スゥイング2" data-name="スゥイング2" class="cls-48" d="M520.27,272.05c-1.82,1.76-2.77,2.92-6.64,8.55-1.43,2.09-2.44,4.33-4.47,8.81-4.37,9.68-3.91,11.07-5.49,11.74-5.99,2.56-18.74-14.79-20.43-17.11-8.5-11.72-4.85-12.36-11.62-20.04-1.78-2.02-11.55-12.78-21.32-22.21-.86-.83-3.12-3-2.55-4.72.32-.96,1.58-1.95,6.38-2.43,8.67-.87,15.19,1.15,15.19,1.15,11.85,3.66,20.39,10.45,27.83,16.47,7.4,5.98,6.6,6.6,12.51,10.72,6.4,4.46,12.78,6.95,10.6,9.06Z"/>
    <path id="_あさくら横" data-name="あさくら横" class="cls-48" d="M506.74,307.79c.56-.91,3.09.69,12.51,2.43,7.72,1.42,11.58,2.14,15.19,1.66,4.29-.57,5.59-.88,8.68-.38.94.15.86,1.2,2.04,6,1.72,6.99,1.95,7.68,2.55,8.68,1.67,2.77,3.55,3.6,3.19,4.6-.44,1.22-3.65,1.15-5.49,1.02-9.38-.67-17.06-5.5-18.64-6.51-8.94-5.75-21.33-15.42-20.04-17.49Z"/>
    <path id="_かみさま" data-name="かみさま" class="cls-48" d="M622.91,323.11c.38,1.24,1.57.87,8.17,4.21,4.01,2.03,4.89,2.84,6.26,2.43,1.93-.58,2.66-2.94,4.09-7.53,1.13-3.64,1.92-6.31.51-8.43-.85-1.27-2.12-1.79-2.43-1.91-6.18-2.51-17.89,7.08-16.6,11.23Z"/>
    <path id="_ダウン" data-name="ダウン" class="cls-48" d="M622.04,326.61c2.98.22,5.46,1.75,7.79,3.19,2.78,1.72,4.17,2.58,4.34,3.96.29,2.33-3.09,3.3-5.62,7.53-1.83,3.06-1.53,5.01-2.3,7.53-1.77,5.83-7.38,8.66-14.43,12.64-7.57,4.27-14.67,9.33-22.21,13.66-18.7,10.73-16.31,10.63-24.13,14.55-16.81,8.44-18.52,4.22-41.87,13.28-16.96,6.58-20.17,10.4-31.02,10.6-7.84.14-9.41-1.79-21.06-2.04-7.94-.17-13.82.65-25.28,2.3-21.43,3.08-21.71,4.87-32.55,5.23-12.66.42-11.08-2.05-25.4-1.91-20.46.19-25.11,5.25-32.94.51-5.21-3.15-8.08-8.37-15.83-9.45-1.95-.27-3.63-.14-6.89.13-8.05.66-14.25,2.26-17.23,3.06-16.94,4.58-25.4,6.87-33.83,13.4-3.61,2.8-4.64,4.35-8.3,6-8.7,3.93-17.48,1.78-19.91,1.15-3.84-1-6.94-2.83-13.15-6.51-12.84-7.61-10.9-9.07-17.62-11.62-7.59-2.88-10.59-4.3-16.6-7.15-1.02-.48-3.05-1.47-3.06-2.81-.01-1.83,4.24-4.25,8.19-7.33,7.84-6.11,5.37-3.62,8.09-6.68,5.96-6.7,10.1-9.48,13.72-15.86,2.8-4.95,1.99-5.24,6-13.28,2.17-4.36,3.96-7.37,7.53-13.28,12.77-21.08,13.94-22.17,17.36-28.98,5.65-11.27,3.63-10.69,7.02-15.7,6.12-9.06,14.13-13.05,27.83-19.66,6.22-3,23.14-10.43,38.94-16.21,3.04-1.11,8.47-3.05,12.66-8.14,2.43-2.95,1.41-3.26,5.46-9.22,1.87-2.74,4.25-5.55,8.94-11.23,2.07-2.51,2.29-2.74,2.81-3.06,4.25-2.67,9.62.35,15.19,1.79,8.12,2.1,9.41-1.01,20.43-.77,5.49.12,19.32.43,30,8.94,6.83,5.44,12.94,14.68,14,16.34.11.17,1.43,1.25,1.63,1.3,1.3.37,1.88.03,3.77,1.12,2.47,1.43,4.1,3.03,4.98,3.96,6.43,6.76,13.79,18.64,13.79,18.64,1.79,2.89,6.94,8.14,17.23,18.64,13.43,13.7,20.15,20.54,22.72,22.21,3.45,2.24,6.86,3.98,8.17,7.91,1.69,5.06-1.18,10.47,1.79,12.89.79.65,1.66.8,2.3.89,12.71,1.91,26.3.26,26.3.26,15.92-1.94,15.54-1.19,26.04-2.94,6.66-1.11,11.24-1.87,15.19-3.19,3.41-1.14,9.55-5.18,21.83-13.28,2.5-1.65,5.42-3.6,9.19-3.32Z"/>
    <path id="_ビギナーズ3" data-name="ビギナーズ3" class="cls-48" d="M235.36,120.34c1.8,1.46,4.34.8,7.4,0,6.5-1.7,10.31-5.78,11.49-7.15,1.54-1.79,4.52-5.78,3.57-6.89-.83-.98-3.73,1.39-9.7,3.06-8.08,2.27-8.87,3.27-11.81,3.89-2.64.56-2.96,5.46-.96,7.08Z"/>
    <path id="_ビギナーズ-2" data-name="ビギナーズ" class="cls-48" d="M218.83,127.15c6.51-2.12,15.27-3.7,16.09-1.79.5,1.16-2.15,3.14-7.15,7.15-16.24,13.03-24.36,19.55-29.11,24-4.13,3.87-6.16,6.17-10.21,7.15-6.19,1.49-13.86-.9-14.55-4.34-.54-2.65,3.29-4.73,14.3-12.51,18.1-12.8,20.98-16.52,30.64-19.66Z"/>
    <path id="_ビギナーズ_xFF11_" data-name="ビギナーズ_xFF11_" class="cls-48" d="M163.43,164.68c1.19-.65,3.73-1.99,6.89-1.53,2.42.35,5.66,1.8,5.87,3.83.19,1.81-2.1,3.33-3.83,4.6-10.88,7.98-14.63,17.1-17.11,15.83-.76-.39-.87-1.49-1.02-3.32-.54-6.52,2.04-15.5,9.19-19.4Z"/>
    <path id="_ビギナーズ0" data-name="ビギナーズ0" class="cls-48" d="M146.32,173.62c-2.98-1.74-11.88,8.2-16.09,14.04-.65.91-4.94,6.99-7.4,16.09-1.12,4.12-1.68,6.18-.77,6.89,2.41,1.88,13.91-6.04,20.17-17.36,4.24-7.68,6.73-18.12,4.09-19.66Z"/>
    <path id="_ダスキン_xFF11_" data-name="ダスキン_xFF11_" class="cls-48" d="M164.49,396.77s1.81-1.69,37.19-7.23l3.36-.47,2.47-.55c.91.79-2.01,5.37-2.21,5.7-2.17,3.63-4.97,6.15-6.38,7.15-9.15,6.46-34.69-.74-34.43-4.6Z"/>
    <path class="cls-48" d="M106.24,394.47c.37-2.36,4.47-3.01,4.85-3.06,3.19-.47,7.17.93,7.4,2.81.27,2.2-4.57,5.74-8.43,4.6-1.94-.58-4.12-2.48-3.83-4.34Z"/>
    <path id="_ダスキン_xFF12_" data-name="ダスキン_xFF12_" class="cls-48" d="M124.11,386.3c.25,4,12.76,7.18,24.51,7.91,7.15.45,9.06-1.39,24.77-4.3,25.96-4.81,34.14-5.17,39.91-10.13,2.18-1.87,1.54-.95,6.55-9.57,6.23-10.71,7.65-14.91,11.23-21.45,3.23-5.9,9.23-2.97,21.7-28.6,7.76-15.94,12.67-19.7,17.48-31.64.15-.37-3.32-3.02-7.01-3.85-3.07-.69-5.98,1.6-6.89,2.3-9.67,7.35-84.38,50.34-118.03,69.72,0,0-8.24,4.17-16.52,9.94-1.08.75,6.9-1.18,9.7,2.04,2.06,2.37.96,6.43.77,7.15-1.79,6.58-8.35,7.54-8.17,10.47Z"/>
    <path id="_エコー_xFF12_" data-name="エコー_xFF12_" class="cls-48" d="M291.6,245.87c1.18.85.06,1.71,1.41,6.72.44,1.65,1.12,3.6.12,4.96-.15.21-.29.36-.39.42-3.38,1.98-12.51,6.38-20.68,12-6.07,4.17-11.55,5.87-17.22,9.6-35.03,23-69.96,42.88-82.98,51.06-12.7,7.98-4.44,3.42-8.14,3.34-3.97-.09-3.93.13-7.94-1.04-9.52-2.78-10.61-1.85-15.06-2.55-3.94-.62,3.46-9.61,9.7-20.43,10.74-18.6,6.98-22.88,17.11-37.02,4.49-6.27,9.74-13.41,19.15-17.36,5.91-2.48,10.21-2.34,20.17-2.55,0,0,15.08-.32,39.83-2.04,22.08-1.53,33.11-2.3,36.6-3.87,1.51-.68,6.21-2.77,8.34-1.24Z"/>
    <path id="_エコー_xFF15_" data-name="エコー_xFF15_" class="cls-48" d="M301.55,242.81c-1.54.89-4.1,2.44-5.11,5.36-.7,2.04-.75,5.06.72,5.94.68.41,1.48.23,2.73-.07,2.48-.59,4.19-1.72,4.68-2.04,2.11-1.37,4.43-2.39,6.55-3.74,5.95-3.79,21.67-12.46,23.16-13.23,0,0,.27-.14.25-.21-.07-.29-3.94.45-4.23.33-3.55-1.49-5.35,1.99-11.66,4.1-7.93,2.64-10.75-.11-17.11,3.57Z"/>
    <path id="_ダスキン_xFF13_" data-name="ダスキン_xFF13_" class="cls-48" d="M347.26,234.44c-7.16,2.51-15.6,8.58-25.16,14.43-.17.11-3.46,2.04-10.05,5.9-3.35,1.97-7.73,4.54-13.56,7.95-16.94,9.92-21.55,12.52-25.66,15.11-1.21.76-1.24.84-2.68,1.74-2.83,1.75-3.41,1.88-3.45,2.38-.1,1.39,4.25,2.99,7.57,3.57,1.64.29,3.4.6,5.62.17,3.05-.59,4.2-2.03,7.81-4.05,1.65-.93,2.63-1.3,7.21-3.09,33.63-13.11,20.41-8.14,28.13-11.07,14.84-5.63,16.19-5.97,18.34-8.08,5.25-5.15,10.76-12.47,10.76-12.47.1-.13.17-.23.22-.29,0,0,2-2.67,5.11-8.43,1.36-2.51,2.38-3.99,1.79-4.85-.45-.64-1.56-.63-3.96-.35-4.03.48-6.05.72-8.04,1.43Z"/>
    <path id="_ウッディー_xFF12_" data-name="ウッディー_xFF12_" class="cls-48" d="M228.53,184.85c-17.74-2.66-41.91,11.48-41.91,11.48-16.61,9.72-26.45,21.18-28.81,24.01-11.21,13.42-18.59,29.01-18.59,29.01-1.79,3.79-3.69,8.29-7.57,14.64-5,8.16-6.77,8.73-10.81,14.89-7.23,11.04-9.43,21.29-11.53,31.07-2.02,9.38-2.98,14.15-.72,17.87,1.58,2.6,4.77,5.28,5.53,10.47.24,1.63.15,2.93.91,3.28,1.89.86,6.49-5.44,7.52-6.85,5.6-7.69,8.12-15.03,10.25-21.44,6.58-19.79,6.74-22.6,10.6-30.82,1.67-3.57,3.87-8.24,7.49-13.53,1.58-2.31,11.2-16.07,26.34-24.08,9.08-4.8,22.26-5.19,48.26-6.13,26.88-.97,40.33-1.45,45.7-.77,5.25.67,17.59,2.52,31.15-2.55,7.97-2.98,18.63-4.64,18.41-6.36-.08-.64-1.53-.72-5.69-1.73-1.58-.39-5.14-1.5-12.26-3.74-7.1-2.24-10.65-3.35-11.96-3.99-7.31-3.58-6.42-6.07-14.25-10.05-4.57-2.32-5.68-2.1-10.47-5.02-3.55-2.17-4.1-3.05-8.01-5.68-1.49-1-1.66-1.04-11.66-6.53-7.36-4.04-10.3-5.68-15.13-6.86,0,0-1.35-.37-2.78-.58Z"/>
    <path class="cls-48" d="M77.13,354.38c.76-1.73,2.61-3.45,4.85-3.32,2.97.18,5.1,3.52,4.6,5.87-.71,3.3-6.67,4.98-8.94,2.81-1.32-1.26-1.25-3.7-.51-5.36Z"/>
    <path class="cls-48" d="M88.36,338.56c.47-1.79,3.11-2.78,4.34-2.04,1.71,1.03,1.09,5.6-.51,6.13-1.39.46-4.42-1.87-3.83-4.09Z"/>
    <path id="_林間嶋" data-name="林間嶋" class="cls-48" d="M21.98,351.32c2.7-12.07,6.65-18.19,9.45-21.7,1.86-2.33,5.09-5.87,5.87-5.36.84.54-1.24,5.35-4.34,11.74-6.02,12.42-4.08,15.7-8.16,26.64-1.57,4.19-2.85,9.25-4.09,8.34-1.85-1.37-.21-13.04,1.28-19.66Z"/>
    <path id="_ウッディー1" data-name="ウッディー1" class="cls-48" d="M34.75,347.49c-2.07,8.85-2.01,7.58-3.95,14.13-2.16,7.27-6.74,8.86-7.28,13.95-.39,3.7-.95,8.12,3.01,12.98,4.8,5.9,15.47,12.97,17.81,8.62s5.69-9.28,12.13-23.94c4.18-9.51,5-11.46,9.44-22.18,12.2-29.46,16.28-42.29,25.22-59.59.08-.16,1.84-9.65,9.62-23.53,2.84-5.06,4.01-12.85,11.36-25.66,1.72-3,1.76-5.79,1.13-6.09-4.21-1.98-10.92,10.97-21.54,24.99-10.24,13.51-20.22,18.56-27.06,27.47-9.98,13.01-17.01,13.56-20.18,22.82-2.03,5.95-.15,7.2-3.06,17.36-2.75,9.59-4.69,10.31-6.64,18.64Z"/>
    <path class="cls-48" d="M185.4,179.07c.17-.73.56-.89,3.4-3.2,2.3-1.87,2.51-2.14,3.17-2.22,1.84-.22,4.1,1.39,4.3,3.12.13,1.18-.8,1.43-3.15,4.71-1.88,2.62-2.22,3.77-3.26,3.82-.98.05-1.76-.89-2.64-1.96-.9-1.09-2.2-2.67-1.82-4.27Z"/>
    <path class="cls-48" d="M240.67,134.15c.47-.61,1.4-1.1,2.21-.85,1.1.34,1.47,1.88,1.36,2.89-.15,1.5-1.44,2.96-2.38,2.81-1.26-.2-2.4-3.3-1.19-4.85Z"/>
    <path class="cls-48" d="M252.84,122.23c1.1.16,1.8,1.12,1.96,1.36.72,1.07.8,2.57.17,3.49-1.31,1.92-5.57,1.24-6.21-.43-.62-1.61,1.87-4.74,4.09-4.43Z"/>
    <path class="cls-48" d="M265.6,114.49c.35-.94,1.51-1.37,2.38-1.19,1.51.31,2.41,2.49,1.7,3.49-.51.71-1.81.79-2.72.34-.89-.44-1.76-1.58-1.36-2.64Z"/>
    <path class="cls-48" d="M273.48,95.55c.58-2.26.88-3.39,1.4-3.45.71-.08,1.6,1.49,1.74,2.89.05.47.18,1.82-.77,2.68-.76.69-2.08.95-2.6.43-.17-.17-.32-.5.21-2.55Z"/>
    <path class="cls-48" d="M276.07,99.51c.39-.84,1.49-1.27,2.26-.89.94.46,1.08,1.96.43,2.77-.34.43-.97.74-1.57.6-.93-.22-1.56-1.49-1.11-2.47Z"/>
    <path class="cls-48" d="M303.07,116.19c.54-.45,2.15.13,2.74,1.28.46.88.36,2.2-.26,2.49-.54.26-1.31-.38-1.47-.51-1.11-.92-1.61-2.76-1.02-3.26Z"/>
    <path id="_エコー1" data-name="エコー1" class="cls-48" d="M135.03,333.64c-3.51,2.32-5.3,7.6-5.66,11.1-.21,2.07.12,3.2-.68,5.06-1.31,3.04-4.04,4.37-6.17,5.62-7.35,4.32-11.97,10.41-11.7,10.76.25.33,5.29-3.48,16.63-10.17.4-.23.71-.43,1.16-.68,1.83-1.05,4.32-2.32,16.37-8.59,10.15-5.29,15.22-7.97,14.89-9.45-.19-.85-1.48-1.16-6.3-2.04-16.08-2.96-17.6-2.25-18.55-1.62Z"/>
    <path id="_x31__x2191_" class="cls-48" d="M303.03,79.66c-2.27-.11-5.02.42-5.28,1.53-.11.5.43,1.12,1.53,2.38.8.92,1.58,1.81,2.89,2.72.35.24,1.85,1.26,3.91,1.87,3.06.91,4.74.14,8.51,0,4.16-.16,3.42.71,9.19.85.39,0,4.37.08,9.36-1.02,3.28-.72,3.88-1.26,3.91-1.7.05-.64-1.12-1.18-2.55-1.87-5.15-2.51-1.56-1.22-8.34-4.43-2.12-1,.06.07-7.32-3.06-2.07-.88-2.84-1.22-3.57-.85-2.08,1.03-.32,5.88-2.21,6.98-1.87,1.08-4.43-3.12-10.04-3.4Z"/>
    <path class="cls-48" d="M105.43,340.93c.05-1.16,0-2.33.09-3.49.42-6.05.18-7.11.77-7.32,1-.35,2.92,2.27,3.79,3.93.49.93.8,1.86,1.4,3.64.42,1.23.63,1.86.67,2.39.03.34.23,3.19-1.45,4.26-.31.2-1.46.25-3.74.34-.6.02-.83.03-1.06-.13-.66-.44-.54-1.58-.46-3.62Z"/>
    <path id="_エコー山頂下" data-name="エコー山頂下" class="cls-48" d="M73.58,396.42c-1.06.28-2.66,1.33-1.17,2.89.43.45,1.49.16,1.85-.28.92-1.13.23-.05.8-1.57.64-1.72-.55-1.28-1.48-1.04Z"/>
    <path id="_一本松" data-name="一本松" class="cls-45" d="M540.39,174.76c-.18-.57-.1-1.45.48-1.74.52-.26,1.17.08,1.5.41.73.73.72,2.18.11,2.54-.58.34-1.79-.27-2.09-1.21Z"/>
  </g>
  <g id="_x31_1_x5F_buildings">
    <rect id="_x36_山頂-2" data-name="_x36_山頂" class="cls-59" x="109.17" y="372.17" width="16.59" height="7.93" transform="translate(-63.45 26.07) rotate(-9.99)"/>
    <rect id="_x36_山麓事務所" class="cls-59" x="630.83" y="279.09" width="15.67" height="7.36" transform="translate(-39.36 115.05) rotate(-9.99)"/>
    <rect id="_センター棟2" data-name="センター棟2" class="cls-59" x="671.87" y="259.84" width="10.93" height="14.56" transform="translate(-9.32 509.27) rotate(-40.95)"/>
    <rect id="_センター棟1" data-name="センター棟1" class="cls-59" x="675.3" y="268.99" width="10.93" height="21.52"/>
    <rect id="_圧雪車庫" data-name="圧雪車庫" class="cls-59" x="671.34" y="304.45" width="5.14" height="7.36"/>
    <rect id="_山頂カフェ" data-name="山頂カフェ" class="cls-59" x="36.69" y="413.81" width="2.64" height="5.91" transform="translate(76.01 833.53) rotate(180)"/>
    <rect id="_x38_上" class="cls-59" x="45.29" y="413.07" width="20.21" height="10.34" transform="translate(-71.69 15.94) rotate(-9.99)"/>
    <rect id="_x38_下" class="cls-59" x="661.81" y="294.19" width="22.81" height="7.36" transform="translate(-41.46 121.27) rotate(-9.99)"/>
    <rect id="_エコー上-2" data-name="エコー上" class="cls-59" x="63.14" y="394.65" width="9.13" height="4.16" transform="translate(-189.3 87.01) rotate(-30)"/>
    <rect id="_エコー下" data-name="エコー下" class="cls-59" x="377.33" y="203.12" width="9.13" height="9.64" transform="translate(-52.8 218.8) rotate(-30)"/>
    <rect id="_メル上" data-name="メル上" class="cls-59" x="305.04" y="71.07" width="7.59" height="9.4" transform="translate(98.97 314.68) rotate(-62.49)"/>
    <rect id="_メル下" data-name="メル下" class="cls-59" x="648.35" y="256.97" width="8.68" height="5.65" transform="translate(199.74 -277.17) rotate(28.15)"/>
  </g>
  <g id="_x31_2.1_x5F_sublifts">
    <line id="_ウッディーペア" data-name="ウッディーペア" class="cls-47" x1="156.96" y1="142.1" x2="46.41" y2="402.56"/>
    <line id="_メルヘンクワッド" data-name="メルヘンクワッド" class="cls-47" x1="653.55" y1="259.32" x2="309.38" y2="76.51"/>
    <line id="_エコークワッド" data-name="エコークワッド" class="cls-47" x1="380.22" y1="211" x2="69.64" y2="394.34"/>
    <line id="_スカイキャビン6" data-name="スカイキャビン6" class="cls-47" x1="120.24" y1="376.4" x2="634.62" y2="282.77"/>
    <line id="_スカイキャビン8" data-name="スカイキャビン8" class="cls-47" x1="64.53" y1="413.53" x2="664.79" y2="297.87"/>
  </g>
  <g id="_x31_2_x5F_lifts">
    <line id="_ウッディーペア-2" data-name="ウッディーペア" class="cls-39" x1="156.96" y1="142.1" x2="46.41" y2="402.56"/>
    <line id="_メルヘンクワッド-2" data-name="メルヘンクワッド" class="cls-54" x1="653.55" y1="259.32" x2="309.38" y2="76.51"/>
    <line id="_エコークワッド-2" data-name="エコークワッド" class="cls-54" x1="69.64" y1="394.34" x2="380.44" y2="210.88"/>
    <path id="_スカイキャビン6-2" data-name="スカイキャビン6" class="cls-51" d="M120.24,376.4c171.46-31.21,342.92-62.42,514.38-93.63"/>
    <line id="_スカイキャビン8-2" data-name="スカイキャビン8" class="cls-46" x1="64.53" y1="413.53" x2="664.79" y2="297.87"/>
  </g>
  <g id="_x31_3_x5F_parkingarea">
    <path id="_道路" data-name="道路" class="cls-50" d="M831.07,175.75c-12.12-1.52-22.11-.7-28.94.34-10.89,1.66-24.84,3.78-34.72,13.28-5.23,5.02-9.53,10.55-9.53,10.55-4.04,5.19-4.66,7.1-8.17,10.55-1.65,1.62-5.24,4.88-10.55,7.49-4.11,2.02-10.22,5.03-18.04,4.09-9.94-1.2-16.04-7.98-18.04-10.21-2.5-2.78-7.54-8.39-7.83-16.68-.26-7.56,3.59-13.06,6.13-16.68,3.76-5.36,8-8.3,16.34-13.96,6.68-4.53,14.91-10.11,26.89-15.32,6.9-3,9.81-3.6,15.32-7.15,4.5-2.9,8.89-5.73,12.6-10.89,7.4-10.3,7.93-24.16,5.11-32.68-.4-1.21-1.09-2.97-1.7-5.79-1.4-6.42-.91-11.48-.68-14.3"/>
    <path id="_道路-2" data-name="道路" class="cls-42" d="M727.92,225.97c.04-.45.08-.55.11-.55.13,0,.11,1.81.57,4.09.38,1.84.64,1.89.68,2.77.09,2.01-1.2,3.59-1.87,4.43-2.22,2.77-3.9,5.95-6.15,8.7-1.38,1.69-5.07,6.21-8.55,10.98-2.84,3.88-5.49,7.6-5.49,7.6-2.83,3.97-4.6,6.52-7.81,7.51-.5.15-1.37.26-3.1.47-2.64.32-10.61.6-7.96.49"/>
    <path id="_道路-3" data-name="道路" class="cls-42" d="M695.42,274.32c-.02-.27-.04-.56-.03-.56,0,0,.19,2.55.32,5.02.17,3.39.26,5.09.17,7.06-.15,3.26-.23,4.89-.94,6.55-1.21,2.82-2.44,2.39-3.91,5.62-.92,2.01-.45,2.21-1.79,5.45-.58,1.4-.97,2.1-1.62,3.91-.01.04-2.53,7.38-.94,2.72"/>
    <path id="_第1駐車場" data-name="第1駐車場" class="cls-61" d="M666.41,247.3c-.02-.43.21-.88.32-1.09.43-.84,1.11-1.29,1.28-1.4,1.99-1.36,7.25-7.02,8.17-8.87.07-.14.29-.62.7-.7.43-.09.86.29,1.02.45,1.85,1.73,6.94,7.5,10.15,9.96,2.3,1.76,9.77,6.54,10.53,7.02.12.08.49.31.45.51-.09.41-1.89.33-2.74.32-3.54-.06-6.53.74-9.51,1.53-3.58.95-3.2,1.46-5.11,1.6-3.54.24-6.36-1.4-7.21-1.91-3.26-1.96-2.48-3.41-5.74-5.17-.67-.36-2.26-1.14-2.3-2.23Z"/>
    <path id="_第2駐車場" data-name="第2駐車場" class="cls-61" d="M685.45,231.27c3.01-1.52,6.11-5.52,12-9.57.18-.12,2.04-1.4,2.04-1.4h3.06c2.61.02,7.34,1.81,12.64,5.36,3.76,2.52,7.53,5.74,7.53,5.74h0s.55,1.03.77,2.04c.18.87.08,1.58,0,2.17-.09.63-.25,1.25-.51,1.91-.76,1.94-1.97,3.33-2.2,3.59-3.53,3.98-10.57,10.46-10.57,10.46h0s-.61,1.06-1.28,1.4c-.8.41-1.86-.14-2.3-.38-6.4-3.46-9.45-6-9.45-6-3.64-3.03-6.57-6.95-10.6-9.45-.23-.14-1.89-1.17-2.55-2.94-.2-.53-.25-.98-.13-1.4.26-.91,1.21-1.37,1.53-1.53Z"/>
    <path id="_第3駐車場" data-name="第3駐車場" class="cls-61" d="M713.54,203.7c-.06.52.21.94.34,1.15,2.79,4.34,8.09,9.11,8.09,9.11.83.74,1.25,1.12,1.79,1.36,1.37.62,2.79.46,6.34-.6,3.43-1.02,5.14-1.53,6.81-2.38,1.02-.52,2.38-1.31,6.17-4.38,4.53-3.68,6.8-5.52,9.11-8.21,1.38-1.61,3.25-4.04,5.06-7.32,1.21-2.16,2.42-3.69,3.19-4.6,6.35-7.42,19.72-15.01,20.51-15.79.01-.01.03-.03.03-.03s.54-.53.87-1.12c.44-.78-1.92-3.75-3.45-6.21-1.62-2.61-1.34-3.08-2.17-3.49-1.94-.95-4.33,1.19-8.43,3.4-2.54,1.37-1.98.74-9.32,3.74-3.55,1.45-9.52,3.91-16.6,7.53-9.61,4.92-12.08,7.28-12.64,9.83-.14.63-.36,2.23-1.4,4.09-.77,1.37-1.6,2.21-3.19,3.7-5.68,5.33-8.52,7.99-9.15,8.3-.46.23-1.84.86-1.96,1.91Z"/>
    <path id="_第5駐車場" data-name="第5駐車場" class="cls-61" d="M731.69,234.73c-1.87,3.05-2.81,4.58-3.45,5.53-1.95,2.93-3.56,4.87-6.09,7.87-6.08,7.25-9.12,10.87-9.57,11.28,0,0-1.42,1.28-3.36,5.49-.08.17-.26.57-.09.81.31.44,1.59.02,1.91-.09,2.39-.78,2.99-3.65,5.06-5.79,2.78-2.86,4.99-1.09,11.02-4.68,1.65-.98,2.83-1.68,4.13-3.02,2.02-2.09,2.5-3.85,5.19-11.28,2.61-7.2,2.92-7.64,3.62-8.13,1.19-.85,4.49-2.55,7.15-4.38.26-.18.77-.54.85-1.11.13-.87-.88-1.27-2.26-2.98-1.27-1.57-1.55-2.63-2.38-2.64-.45,0-.78.29-.94.43-5.62,4.95-5.06,3.94-6.38,5.66-1,1.3-1.07,1.56-4.43,7.02Z"/>
    <path id="_第6駐車場" data-name="第6駐車場" class="cls-61" d="M697.82,277.75c.24,2.01-.1,4.06.04,6.09.31,4.28-.31,6.46.68,6.85.12.05.3.03.64,0,.82-.08,2.97-.29,3.87-1.7.29-.45.36-.89.43-1.66.25-2.93-.06-5.29-.21-6.43-.53-3.83-.89-4.39-1.4-4.6-.09-.04-.77.03-2.13.17-1.02.1-1.54.17-1.79.55-.18.28-.14.61-.13.72Z"/>
    <path id="_第7駐車場" data-name="第7駐車場" class="cls-61" d="M687.38,275.24c-.61.78-.37,1.89-.27,2.4.7,3.66-.54,5.28.07,9.26.21,1.38.46,1.83.26,2.77-.1.45-.3,1.03,0,1.4.19.24.51.29.77.32,1.56.17,2.99-.18,3.7-.38,1.26-.35,1.64-.58,1.85-.96.22-.38.2-.76.19-.89-.15-3.25.63.12-.06-6.06-.4-3.59-.88-6.66-.51-7.53.03-.07.18-.39.06-.7-.06-.18-.22-.39-.64-.57-.92-.41-2.54-.46-4.28.26-.86.35-1.08.62-1.15.7Z"/>
    <path id="_第8駐車場" data-name="第8駐車場" class="cls-61" d="M670.24,340.9c-.04.97-.08,2.64.94,3.28.98.62,2.42-.09,2.72-.26,1.8-.95,2.33-2.85,3.36-5.83,1.39-4.02,2.09-6.03,2.68-7.02,2.1-3.53,5.58-5.9,7.28-7.06,1.65-1.13,3.58-2.21,4.77-4.51.72-1.41.65-2.28.51-2.81-.35-1.29-1.53-1.99-2.13-2.34-.43-.25-.88-.44-3.45-.98-1.95-.41-2.94-.61-3.23-.51-1.57.52-1.65,2.76-2.85,5.83-.97,2.5-1.24,1.83-4.04,6.77-2.12,3.73-1.26,2.87-4.26,8.64-1.17,2.25-2.2,4.12-2.3,6.81Z"/>
  </g>
  <g id="_x31_4_x5F_Objectsname">
    <text class="cls-35" transform="translate(677.59 257.62) rotate(49.05) scale(1.04 1)"><tspan x="0" y="0">インフォ</tspan></text>
    <text class="cls-18" transform="translate(110.22 384.95) rotate(-9.99) scale(1.04 1)"><tspan class="cls-38" x="0" y="0">旧6</tspan><tspan x="6.39" y="0">駅舎</tspan></text>
    <text class="cls-2" transform="translate(312.96 99.19) scale(1.13 1)"><tspan x="0" y="0">2</tspan><tspan class="cls-68" x="2" y="0">3</tspan><tspan x="4.79" y="0">号柱連絡路</tspan></text>
    <text class="cls-2" transform="translate(326.43 109.64) scale(1.13 1)"><tspan x="0" y="0">2</tspan><tspan class="cls-68" x="2" y="0">0</tspan><tspan x="4.79" y="0">号柱連絡路</tspan></text>
    <text class="cls-23" transform="translate(529.9 234.14) rotate(-70.64) scale(1.13 1)"><tspan class="cls-66" x="0" y="0">9</tspan><tspan x="3.52" y="0">号柱連絡路</tspan></text>
    <text class="cls-23" transform="translate(610.15 335.51) rotate(-9.99) scale(1.04 1)"><tspan x="0" y="0">かみさま</tspan></text>
    <text class="cls-23" transform="translate(594.96 322.74) rotate(-19.03) scale(.83 1)"><tspan x="0" y="0">あさくら</tspan></text>
    <text class="cls-21" transform="translate(561.7 341.55) rotate(-9.99) scale(.83 1)"><tspan x="0" y="0">エプロン</tspan></text>
    <text class="cls-2" transform="translate(317.41 73.99) rotate(24) scale(1.13 1)"><tspan x="0" y="0">メルヘン本線</tspan></text>
    <text class="cls-18" transform="translate(360.83 210.84) rotate(-72.83) scale(.83 1)"><tspan x="0" y="0">滑り込み</tspan></text>
    <text class="cls-18" transform="translate(371.19 198.45) rotate(-2.31) scale(.83 1)"><tspan x="0" y="0">駅舎裏</tspan></text>
    <text class="cls-18" transform="translate(391.15 193.19) rotate(12.92) scale(.83 1)"><tspan x="0" y="0">旧チャレンジ</tspan></text>
    <text class="cls-23" transform="translate(456.67 220.25) rotate(-2.31) scale(.83 1)"><tspan x="0" y="0">二本松</tspan></text>
    <text class="cls-23" transform="translate(524.37 172.28) rotate(-2.31) scale(.83 1)"><tspan x="0" y="0">一本松</tspan></text>
    <text class="cls-23" transform="translate(76.61 349.45) rotate(-2.31) scale(.83 1)"><tspan x="0" y="0">中の島</tspan></text>
    <text class="cls-18" transform="translate(446.79 233.26) rotate(-2.31) scale(.83 1)"><tspan x="0" y="0">貯木場</tspan></text>
    <text class="cls-18" transform="translate(194.62 185.32) rotate(-43) scale(.83 1)"><tspan x="0" y="0">スイング入口中の島</tspan></text>
    <text class="cls-18" transform="translate(179.53 149.93) rotate(-33.41) scale(.83 1)"><tspan x="0" y="0">ちびっこストリート</tspan></text>
    <text class="cls-8" transform="translate(151.62 178.41) rotate(-72.83) scale(.87 1)"><tspan x="0" y="0">ウッディー滑り込み</tspan></text>
    <text class="cls-18" transform="translate(68.2 406.41) rotate(-11.87) scale(.83 1)"><tspan x="0" y="0">エコー山</tspan></text>
    <text class="cls-18" transform="translate(399.9 201.76) rotate(12.92) scale(.83 1)"><tspan x="0" y="0">ファミ壁</tspan></text>
    <text class="cls-17" transform="translate(44.44 442.45) scale(.83 1)"><tspan x="0" y="0">ブロード</tspan></text>
    <text class="cls-16" transform="translate(207.82 113.64) rotate(-25.01)"><tspan x="0" y="0">旧第３リフト</tspan></text>
    <text class="cls-18" transform="translate(394.97 209.57) rotate(12.92) scale(.83 1)"><tspan x="0" y="0">ステージ</tspan></text>
  </g>
  <g id="_x31_5_x5F_SubCoursename">
    <text class="cls-21" transform="translate(475.9 80.26) rotate(-17.58) scale(.83 1)"><tspan x="0" y="0">メルヘン上部</tspan></text>
    <text class="cls-21" transform="translate(539.47 118.66) rotate(91.07) scale(.83 1)"><tspan x="0" y="0">メルヘン中間部</tspan></text>
    <text class="cls-21" transform="translate(137.01 323.94) rotate(-61.44) scale(1.2 1)"><tspan x="0" y="0">エコー上部</tspan></text>
    <text class="cls-21" transform="translate(160.86 270.8) rotate(-38.1) scale(1.2 1)"><tspan x="0" y="0">エコー中間部</tspan></text>
    <text class="cls-21" transform="translate(232.69 246.12) rotate(-3.24) scale(1.13 1)"><tspan x="0" y="0">エコー下部</tspan></text>
    <text class="cls-21" transform="translate(265.56 200.8) rotate(24.34) scale(.83 1)"><tspan x="0" y="0">スイング上部</tspan></text>
    <text class="cls-21" transform="translate(329.52 140.9) rotate(49.05) scale(.83 1)"><tspan x="0" y="0">ファミリー上部</tspan></text>
    <text class="cls-21" transform="translate(495.31 240.9) rotate(35.01) scale(.83 1)"><tspan x="0" y="0">ファミリー下部</tspan></text>
    <text class="cls-21" transform="translate(416.08 210.87) rotate(12.92) scale(.83 1)"><tspan x="0" y="0">ファミリー中間部</tspan></text>
    <text class="cls-21" transform="translate(452.27 256.12) rotate(50.75) scale(.81 1)"><tspan x="0" y="0">スイング下部（スイ壁</tspan><tspan class="cls-60" x="50" y="0">）</tspan></text>
    <text class="cls-21" transform="translate(394.55 232.3) rotate(2.57) scale(.83 1)"><tspan x="0" y="0">スイング中間部</tspan></text>
    <text class="cls-13" transform="translate(312.83 427.22) rotate(-7.76) scale(1.13 1)"><tspan x="0" y="0">大壁</tspan></text>
    <text class="cls-13" transform="translate(236.06 434.77) rotate(25.98) scale(1.13 1)"><tspan x="0" y="0">ちょい壁</tspan></text>
    <text class="cls-13" transform="translate(410.89 426.13) scale(1.13 1)"><tspan x="0" y="0">二の壁</tspan></text>
    <text class="cls-13" transform="translate(534.25 396.13) rotate(-19.03) scale(1.13 1)"><tspan x="0" y="0">馬の背</tspan></text>
    <text class="cls-13" transform="translate(624.95 362.83) rotate(-37.38) scale(.96 1)"><tspan x="0" y="0">最後の壁</tspan></text>
    <text class="cls-13" transform="translate(135.29 420.08) rotate(.77) scale(1.13 1)"><tspan x="0" y="0">ダウンヒル上部</tspan></text>
    <text class="cls-23" transform="translate(503.75 296.44) rotate(-63.93) scale(.83 1)"><tspan x="0" y="0">ファミリー連絡路</tspan></text>
    <text class="cls-18" transform="translate(240.32 349.64) rotate(-55.35) scale(1.13 1)"><tspan x="0" y="0">ダスキン上部</tspan></text>
    <text class="cls-22" transform="translate(297.92 288.72) rotate(-24.86) scale(.83 1)"><tspan x="0" y="0">ダスキン下部</tspan></text>
    <text class="cls-21" transform="translate(546.24 225.67) rotate(27.01) scale(.83 1)"><tspan x="0" y="0">メルヘン下部</tspan></text>
  </g>
  <g id="_x31_6_x5F_CourseName">
    <text class="cls-4" transform="translate(255.41 178.38) rotate(29.47) scale(.89 1)"><tspan x="0" y="0">スイングコース</tspan></text>
    <text class="cls-4" transform="translate(350.35 137.11) rotate(47) scale(.9 1)"><tspan x="0" y="0">ファミリーコース</tspan></text>
    <text class="cls-4" transform="translate(107.29 293.35) rotate(-64.02) scale(1.13 1)"><tspan x="0" y="0">ウッディーコース</tspan></text>
    <text class="cls-1" transform="translate(46.57 343.42) rotate(-64.02) scale(1.23 1)"><tspan x="0" y="0">林間コース</tspan></text>
    <text class="cls-1" transform="translate(465.9 97.93) rotate(-14.33) scale(.88 1)"><tspan x="0" y="0">メルヘンコース</tspan></text>
    <text class="cls-9" transform="translate(261.92 420.08) rotate(-11.38) scale(1.16 1)"><tspan x="0" y="0">ダウンヒルコース</tspan></text>
    <text class="cls-4" transform="translate(179.95 268.51) rotate(-1.63) scale(1.13 1)"><tspan x="0" y="0">エコーコース</tspan></text>
    <text id="_ダスキン_xFF08_深雪エリア_xFF09_" data-name="ダスキン_xFF08_深雪エリア_xFF09_" class="cls-21" transform="translate(224.01 354.25) rotate(-55.35) scale(1.13 1)"><tspan x="0" y="0">ダスキン（深雪エリア</tspan><tspan class="cls-67" x="50" y="0">）</tspan></text>
  </g>
  <g id="_x31_7_x5F_Buildingname">
    <text class="cls-35" transform="translate(631.8 291.51) rotate(-9.99) scale(1.04 1)"><tspan x="0" y="0">索道事務所</tspan></text>
    <text class="cls-35" transform="translate(669.47 316.21) rotate(-9.99) scale(1.04 1)"><tspan x="0" y="0">圧雪車庫</tspan></text>
    <text class="cls-35" transform="translate(659.25 295.63) rotate(-9.99) scale(1.04 1)"><tspan x="0" y="0">山麓待機室</tspan></text>
    <text class="cls-18" transform="translate(46.46 413.54) rotate(-9.99) scale(1.04 1)"><tspan x="0" y="0">山頂待機室</tspan></text>
    <text class="cls-35" transform="translate(662.65 266.42) rotate(49.05) scale(1.04 1)"><tspan x="0" y="0">センター棟</tspan></text>
  </g>
  <g id="_x31_8_x5F_Streetname">
    <text class="cls-18" transform="translate(89.91 398.53) rotate(-30) scale(.83 1)"><tspan x="0" y="0">初飛びストリート</tspan></text>
    <text class="cls-23" transform="translate(485.17 212.43) rotate(35.01) scale(.83 1)"><tspan x="0" y="0">チャレンジストリート</tspan></text>
    <text class="cls-23" transform="translate(158.75 192.21) rotate(-43) scale(.83 1)"><tspan x="0" y="0">ビギナーズストリート</tspan></text>
  </g>
  <g id="_x31_9_x5F_LiftName">
    <text class="cls-3" transform="translate(204.93 306.57) rotate(-30) scale(1.13 1)"><tspan x="0" y="0">エコークワッドリフト</tspan></text>
    <text class="cls-19" transform="translate(58.24 363.67) rotate(-66.99) scale(1.11 1)"><tspan x="0" y="0">ウッディーペアリフ</tspan><tspan class="cls-64" x="63" y="0">ト(第</tspan><tspan x="84.94" y="0">4</tspan><tspan class="cls-37" x="89.35" y="0">）</tspan></text>
    <text class="cls-3" transform="translate(408.91 126.66) rotate(27.51) scale(1.13 1)"><tspan x="0" y="0">メルヘンクワッドリフト（第１</tspan><tspan class="cls-58" x="112" y="0">）</tspan></text>
    <text class="cls-24" transform="translate(280.85 368.63) rotate(-11.38) scale(1.13 1)"><tspan class="cls-32" x="0" y="0">スカイキャビ</tspan><tspan class="cls-33" x="54" y="0">ン</tspan><tspan class="cls-36" x="65.25" y="-.38">8</tspan></text>
  </g>
  <g id="_x32_0_x5F_Parkingname">
    <text class="cls-17" transform="translate(742.68 195.41) rotate(-37.5)"><tspan class="cls-34" x="0" y="0">第</tspan><tspan x="7.5" y="0">3</tspan></text>
    <text class="cls-17" transform="translate(675.3 251.87) rotate(-37.5)"><tspan class="cls-34" x="0" y="0">第</tspan><tspan x="7.5" y="0">1</tspan></text>
    <text class="cls-17" transform="translate(703.57 239.74) rotate(-37.5)"><tspan class="cls-34" x="0" y="0">第</tspan><tspan x="7.5" y="0">2</tspan></text>
    <text class="cls-17" transform="translate(726.48 251.87) rotate(-37.5)"><tspan class="cls-34" x="0" y="0">第</tspan><tspan x="7.5" y="0">5</tspan></text>
    <text class="cls-11" transform="translate(688.57 286.32) rotate(-37.5)"><tspan class="cls-34" x="0" y="0">第</tspan><tspan x="5" y="0">7</tspan></text>
    <text class="cls-11" transform="translate(699.87 288.17) rotate(-37.5)"><tspan class="cls-34" x="0" y="0">第</tspan><tspan x="5" y="0">6</tspan></text>
    <text class="cls-17" transform="translate(681.96 326.34) rotate(-37.5)"><tspan class="cls-34" x="0" y="0">第</tspan><tspan x="7.5" y="0">8</tspan></text>
  </g>
  <g id="_x32_1_x5F_Roadname">
    <text class="cls-20" transform="translate(792.7 191.91)"><tspan x="0" y="0">至定山渓</tspan></text>
    <text class="cls-20" transform="translate(736.13 87.56)"><tspan x="0" y="0">至小樽</tspan></text>
  </g>
  <g id="_x32_2_x5F_Titlename">
    <text class="cls-10" transform="translate(28.68 46.82)"><tspan x="0" y="0">Sapporo KOKUSAI Ski Area Map</tspan></text>
    <text class="cls-27" transform="translate(495.31 450.28)"><tspan x="0" y="0">Sapporo KOKUSAI Ski Area Map © 2025 by Taise SATO is licensed under </tspan><tspan x="0" y="9">Creative Commons Attribution-NonCommercial-ShareAlike 4.0 International. </tspan><tspan x="0" y="18">To view a copy of this license, visit https://creativecommons.org/licenses/by-nc-sa/4.0/</tspan></text>
    <text class="cls-10" transform="translate(736.47 427.74)"><tspan x="0" y="0">ver.3.0.0</tspan></text>
  </g>
  <g id="_x32_3_x5F_overoutline">
    <path id="_外周" data-name="外周" class="cls-55" d="M691.03,306.89c.89,4.68,6.49,6.28,6.13,11.23-.11,1.53-.74,2.69-2.3,4.85-7.36,10.22-12.1,10.37-16.6,17.87-2.34,3.92-2.67,6.57-5.11,7.15-2.5.59-5.89-1.32-6.64-3.83-.72-2.42,1.47-3.85,4.09-9.96,1.52-3.56,2.84-7.9,2.3-8.17-.67-.33-3.45,5.8-9.45,13.53-1.38,1.78-5.74,7.28-12.51,13.28-2.65,2.35-6,5.29-10.98,8.43-6.64,4.18-10.91,6.87-17.11,7.66-4.39.56-6.26-.28-11.23,1.02-4.12,1.08-7,2.74-8.43,3.57-15.54,9.11-22.39,15.17-29.36,18.38-25.86,11.93-56.82,19.98-76.6,27.57-10.92,4.2-8.48.72-31.91,4.34-30.83,4.76-34.45,6.98-49.53,7.4-12.57.35-12.06-1.13-36.51-1.79-15.81-.42-23.72-.63-31.91,0-8.05.62-42.79,3.3-74.04,17.62-3.68,1.69-8.89,2.3-17.32,1.53-8.36-.77-14.92-2.4-23.28-8.43-15.09-10.89-25.96-18.73-38.55-24.51-10.07-4.63-18.76-8.62-30.64-8.43-9.69.16-13.15,2.97-26.81,3.83-12.66.8-13.35-1.39-23.49-1.02-24.08.87-46.82,14.16-50.04,16.09-6.77,4.04-17.26,11.28-22.47,7.66-2.08-1.45-2.21-3.86-5.11-4.85-4.09-1.4-7.27,2.21-10.98.26-.23-.12-2.61-1.41-2.55-3.06.09-2.81,7.11-3.05,8.17-7.15.59-2.26-1.15-3.73,0-5.62,1.02-1.68,2.85-1.27,3.57-2.55,1.14-2.02-1.57-6.25-4.85-9.19-6.96-6.22-9.06-5.19-13.27-9.74-1.42-1.54-6.77-2.4-5.62-15.79,1.27-14.81,1.91-22.21,5.87-30.64,4.63-9.83,7.7-8.79,17.36-25.02,4.67-7.84,4.14-8.4,7.66-13.79,5.57-8.53,10.5-12.66,20.17-21.7,18.76-17.54,28.16-26.45,29.11-32.94,1.3-8.88-3.36-13.4.51-22.21,2.39-5.44,4.75-5.07,10.47-12.26,6.79-8.54,5.9-12.16,13.79-26.55,4.83-8.82,7.25-13.23,11.23-17.62,10.62-11.69,19.66-11.99,21.45-20.68.88-4.25,2.4-8.33,3.57-12.51.52-1.87,1.1-3.93,2.55-4.34,1.65-.47,3,1.58,5.62,3.06,3.38,1.92,6.79,1.72,9.96,1.53,8.06-.47,14.33-6.73,16.09-8.43,18.1-17.43,39.84-13.94,73.28-41.11,4.48-3.64,9.09-7.77,17.11-12.51,10.46-6.19,18.55-10.98,29.11-10.98,9.42,0,17.96,3.82,28.85,8.68,6.54,2.92,8.32,4.41,13.28,5.36,8.31,1.6,11.72-.97,21.96-2.3,16.41-2.13,18.28,3.07,34.72.51,8.97-1.4,8.77-3,17.36-4.09,13.07-1.65,17.38,1.57,27.57,1.79,21.97.48,27.55-13.93,57.19-16.85,3.6-.36,8.65-.65,14.81.51,5.58,1.05,16.81,3.16,23.74,12.51,5.62,7.57,5.62,16.12,5.62,21.96,0,9.25-2.53,11.1-4.6,21.96-2.16,11.36.14,11.84-.26,37.02-.25,15.98-1.22,18.37.26,26.55,1.42,7.91,3.1,16.56,9.96,22.21,3.44,2.84,4.38,2.92,14.75,8.49,1.54.83,7.83,4.02,19.15,9.57,25.23,12.38,26.81,17.3,43.72,22.28,5.67,1.67,14.27,2.92,21.45-1.53"/>
  </g>
  <g id="_x32_4_x5F_orange">
    <path id="_バラン" data-name="バラン" class="cls-49" d="M498.79,301.01c.73,1.09,1.76,2.43,3.19,3.77,1.55,1.45,3.08,2.45,4.29,3.12"/>
    <path id="_メルヘン出口-2" data-name="メルヘン出口" class="cls-49" d="M563.86,286.91c-.58,1.18-1.21,2.75-1.65,4.65-.48,2.07-.57,3.89-.54,5.27"/>
    <path id="_x39_号柱連絡路出口" class="cls-49" d="M531.19,242.19c-.26.78-.55,1.9-.63,3.28-.09,1.42.08,2.49.24,3.42.21,1.26.62,3.03,1.5,5.07"/>
    <path id="_チャレンジ横" data-name="チャレンジ横" class="cls-49" d="M480.11,213.34c1.59.68,3.79,1.68,6.35,3.03.94.5,3.05,1.63,8.08,4.86,3.71,2.37,6.98,4.47,11.28,7.61,2.32,1.69,4.83,3.62,7.48,5.78"/>
    <path id="_x32_0号柱下" class="cls-49" d="M379.83,121.51c.85-.76,2.01-1.71,3.47-2.7,1.88-1.28,3.41-2.05,4.55-2.62,1.55-.77,3.61-1.69,6.13-2.53"/>
    <path id="_x32_3号柱下" class="cls-49" d="M335.77,93.83c.92-.12,5.04-.63,7.36-.64,1.44,0,2.34,0,2.34,0,1.21,0,1.38.02,1.91,0,.87-.04,1.59-.07,2.47-.3.7-.18,1.25-.41,1.62-.6"/>
    <path class="cls-49" d="M189.41,174.11c-1.46,1.28-2.52,2.17-3.32,2.84-.5.42-1.39,1.15-1.76,2.27-.18.56-.15.95-.1,1.21.13.57.49.93.64,1.09,1.5,1.56,1.18,2.8,2.81,3.93.31.21,1.17.79,2.33.8.27,0,.75,0,1.28-.26.73-.35,1.09-.96,1.34-1.4.57-1,.25-1.21.73-2.11.28-.52.45-.57,1.69-1.91.45-.49.82-.91,1.05-1.18"/>
    <path class="cls-49" d="M89.24,335.73c-.3.2-1.2.87-1.62,2.13-.06.19-.38,1.2-.04,2.43.08.28.5,1.73,1.96,2.6.89.53,2.62,1.11,3.79.26.74-.54.92-1.41,1.11-2.3.33-1.56.05-2.88-.17-3.62"/>
    <path class="cls-49" d="M79.87,350.41c-.61.27-2.39,1.15-3.45,3.19-.33.64-1.37,2.64-.51,4.89.1.26.85,2.16,2.89,3.02,2.09.89,4.03.05,5.02-.38.85-.37,3.17-1.37,3.79-3.62.37-1.35,0-2.67-.13-3.11-.24-.85-.61-1.49-.89-1.91"/>
    <path class="cls-49" d="M96.07,375.64c-1.67.37-2.82,1.37-2.87,2.43-.03.6.29,1.07.51,1.4.54.8,1.56,1.58,2.87,1.6.13,0,1.57,0,2.55-1.09.22-.24.36-.47.45-.64"/>
    <path class="cls-49" d="M339.53,232.81c1.31-1.37,2.62-1.96,3.38-2.23.84-.3,1.6-.57,2.49-.32,1.54.43,2.19,2.07,2.3,2.36"/>
    <path class="cls-49" d="M362.38,215.2c.25.37,1.12,1.62,1.71,2.31.06.07.37.43.78.88.15.17.28.31.36.41"/>
    <path class="cls-49" d="M369.41,201.03c-1.08,2.06-1.58,3.57-1.85,4.6-.1.4-.34,1.38-.77,2.94-.36,1.31-.35,1.2-.38,1.4-.33,2.02.34,4.04.32,3.89h0c1.1,1.27,1.88,2.37,2.42,3.16.84,1.26,1.37,2.28,2.39,2.43.44.06.84-.05,1.11-.16"/>
    <path class="cls-49" d="M370.56,201.03c2.37.32,4.24.18,5.49,0,2.25-.32,2.69-.81,5.17-1.02,1.46-.13,2.99-.24,4.79.26,1.12.31,2.51.9,2.94,1.09.69.3,1.26.57,1.66.77"/>
    <path class="cls-49" d="M38.56,400.41c.36,1.02.82,2.27,1.35,3.7.32.85.5,1.34.91,1.94.35.51.95,1.36,2.07,1.85.29.12.95.4,1.82.34.9-.07,1.53-.46,1.97-.74.64-.41,1.04-.85,1.46-1.32.47-.53.77-.97,1.06-1.42.3-.45.67-1.06,1.04-1.82"/>
    <path class="cls-49" d="M123.33,401.58c.75-.74,1.31-1.4,1.69-1.88.86-1.08,1.18-1.73,2.01-2.11.57-.26,1.12-.28,1.5-.26"/>
    <path class="cls-49" d="M123.78,402.67c.2.47.56,1.17,1.24,1.82.35.33.77.72,1.44.93,1,.3,1.9-.04,2.23-.19"/>
    <path class="cls-49" d="M396.43,202.13c-.37.04-1.64.12-2.33-.67-.33-.38-.38-1.18-.48-2.78-.06-1,0-1.23.13-1.44.25-.39.77-.56,1.79-.89.68-.22,1.03-.33,1.4-.32.81.03,1.41.46,1.69.7"/>
    <path class="cls-49" d="M632.51,311.68c.05-.57.26-1.86,1.28-2.89,1.51-1.54,4.41-2.08,5.53-.77.68.8.48,2.04.34,2.64"/>
    <path class="cls-49" d="M628.85,293.89c.74-.19,1.76-.46,2.98-.77,2.52-.64,4.15-1.05,6.3-1.53,4.06-.91,6.09-1.37,6.72-1.36,1.39.01,3.16.23,3.57-.6.17-.33.05-.7,0-.85-.28-.95-.43-2.65.17-5.96"/>
    <path class="cls-49" d="M647.62,276.72c-1.51-.31-3.2-.54-5.02-.61-2.53-.1-3.79-.15-5.11.23-1.49.42-3.04.63-4.55.96-.15.03-.58.13-1.01-.07-.02,0-.44-.21-.66-.63-.32-.61.05-1.25.41-2.37.27-.83.5-1.53.55-2.39.05-.83.14-2.4-.76-3.32-.19-.2-.47-.41-.53-.79-.07-.39.09-.79.34-1.17,0,0,.2-.4.51-.75.99-1.12,4.12-1.15,4.12-1.15,6.81-.05,2.36-.25,6.85-.1,1.35.04,3.01.1,4.92.18"/>
    <path class="cls-49" d="M648.83,262.78c-.83,1.89-.92,3.34-.83,4.34.09.96.35,1.67.26,2.87-.02.27-.09.92,0,1.79.04.35.09.64.13.83"/>
    <path class="cls-49" d="M653.62,265.53c-.24.94-.47,2.15-.51,3.57-.04,1.35.09,2.52.26,3.45"/>
  </g>
  <g id="_x32_5_x5F_Orangename">
    <text class="cls-31" transform="translate(502.53 303.09) rotate(35.01) scale(.83 1)"><tspan x="0" y="0">バラン</tspan></text>
    <text class="cls-29" transform="translate(129.75 408.09) rotate(-9.99) scale(.64 1)"><tspan x="0" y="0">セパレート</tspan></text>
    <text class="cls-25" transform="translate(49.95 407.17) rotate(-9.99) scale(.72 1)"><tspan x="0" y="0">山頂</tspan></text>
    <text class="cls-14" transform="translate(96.38 383.71) rotate(-9.99) scale(.8 1)"><tspan x="0" y="0">1</tspan><tspan class="cls-63" x="1.12" y="0">6</tspan><tspan x="2.88" y="0">号柱</tspan></text>
    <text class="cls-14" transform="translate(340.38 230.16) rotate(-9.99) scale(.8 1)"><tspan class="cls-63" x="0" y="0">3</tspan><tspan x="1.76" y="0">号柱</tspan></text>
  </g>
  <g id="_x32_6_x5F_banar">
    <rect id="_ダスキン出口-2" data-name="ダスキン出口" class="cls-57" x="357.2" y="235.92" width="9.92" height="2.83"/>
    <rect class="cls-57" x="432.82" y="237.24" width="9.92" height="2.83"/>
    <rect class="cls-57" x="455.74" y="227.78" width="9.92" height="2.83"/>
    <rect class="cls-57" x="468.18" y="216.9" width="9.92" height="2.83"/>
    <rect id="_ダスキン出口-3" data-name="ダスキン出口" class="cls-57" x="354.8" y="218.69" width="9.92" height="2.83"/>
    <rect id="_ダスキン出口-4" data-name="ダスキン出口" class="cls-57" x="523.75" y="249.2" width="9.92" height="2.83"/>
    <rect id="_ダスキン出口-5" data-name="ダスキン出口" class="cls-57" x="552.11" y="291.97" width="9.92" height="2.83"/>
    <rect id="_ダスキン出口-6" data-name="ダスキン出口" class="cls-57" x="538.83" y="303.98" width="9.92" height="2.83"/>
    <rect id="_ダスキン出口-7" data-name="ダスキン出口" class="cls-57" x="354.8" y="230.13" width="9.92" height="2.83"/>
    <rect id="_ダスキン出口-8" data-name="ダスキン出口" class="cls-57" x="51" y="383.71" width="9.92" height="2.83"/>
    <rect id="_ダスキン出口-9" data-name="ダスキン出口" class="cls-57" x="59.57" y="363.67" width="9.92" height="2.83"/>
  </g>
  <g id="_x32_7_x5F_Banarname">
    <text class="cls-30" transform="translate(357.97 238.06)"><tspan x="0" y="0">一旦停止</tspan></text>
    <text class="cls-30" transform="translate(433.67 239.32)"><tspan x="0" y="0">一旦停止</tspan></text>
    <text class="cls-30" transform="translate(456.67 230.07)"><tspan x="0" y="0">スピード</tspan></text>
    <text class="cls-30" transform="translate(469.18 219.12)"><tspan x="0" y="0">スピード</tspan></text>
    <text class="cls-30" transform="translate(355.73 220.63)"><tspan x="0" y="0">合流注意</tspan></text>
    <text class="cls-30" transform="translate(524.75 251.2)"><tspan x="0" y="0">合流注意</tspan></text>
    <text class="cls-30" transform="translate(552.99 294.15)"><tspan x="0" y="0">合流注意</tspan></text>
    <text class="cls-30" transform="translate(539.68 306.12)"><tspan x="0" y="0">合流注意</tspan></text>
    <text class="cls-30" transform="translate(355.75 232.3)"><tspan x="0" y="0">合流注意</tspan></text>
    <text class="cls-30" transform="translate(51.87 385.94)"><tspan x="0" y="0">滑走禁止</tspan></text>
    <text class="cls-30" transform="translate(60.68 365.9)"><tspan x="0" y="0">滑走禁止</tspan></text>
  </g>
  <g id="_x35_0_x5F_Frags">
    <text class="cls-5" transform="translate(621.71 339.63) scale(1.17 1)"><tspan x="0" y="0">①</tspan></text>
    <text class="cls-5" transform="translate(615.66 353.62) scale(1.17 1)"><tspan x="0" y="0">②</tspan></text>
    <text class="cls-5" transform="translate(602.56 361.74) scale(1.17 1)"><tspan x="0" y="0">③</tspan></text>
    <text class="cls-5" transform="translate(577.43 394.83) scale(1.17 1)"><tspan x="0" y="0">④</tspan></text>
    <text class="cls-5" transform="translate(533.56 413.27) scale(1.17 1)"><tspan x="0" y="0">⑤</tspan></text>
    <text class="cls-5" transform="translate(492.92 426.02) scale(1.17 1)"><tspan x="0" y="0">⑥</tspan></text>
    <text class="cls-5" transform="translate(458.97 430.4) scale(1.17 1)"><tspan x="0" y="0">⑦</tspan></text>
    <text class="cls-5" transform="translate(427.58 436.25) scale(1.17 1)"><tspan x="0" y="0">⑧</tspan></text>
    <text class="cls-5" transform="translate(391.07 436.25) scale(1.17 1)"><tspan x="0" y="0">⑨</tspan></text>
    <text class="cls-5" transform="translate(353.87 434.74) scale(1.17 1)"><tspan x="0" y="0">⑩</tspan></text>
    <text class="cls-5" transform="translate(335.05 436.25) scale(1.17 1)"><tspan x="0" y="0">⑪</tspan></text>
    <text class="cls-5" transform="translate(315.11 439.65) scale(1.17 1)"><tspan x="0" y="0">⑫</tspan></text>
    <text class="cls-5" transform="translate(297.94 443.94) scale(1.17 1)"><tspan x="0" y="0">⑬</tspan></text>
    <text class="cls-5" transform="translate(276.7 450.29) scale(1.17 1)"><tspan x="0" y="0">⑭</tspan></text>
    <text class="cls-5" transform="translate(240.18 452.94) scale(1.17 1)"><tspan x="0" y="0">⑮</tspan></text>
    <text class="cls-5" transform="translate(216.62 437.84) scale(1.17 1)"><tspan x="0" y="0">⑯</tspan></text>
    <text class="cls-5" transform="translate(189.44 422.11) scale(1.17 1)"><tspan x="0" y="0">⑰</tspan></text>
    <text class="cls-5" transform="translate(156.96 414.26) scale(1.17 1)"><tspan x="0" y="0">⑱</tspan></text>
    <text class="cls-5" transform="translate(116.28 418.24) scale(1.17 1)"><tspan x="0" y="0">⑲</tspan></text>
  </g>
  <g id="_x35_1_x5F_Frags">
    <text class="cls-6" transform="translate(266.51 80.22)"><tspan x="0" y="0">①</tspan></text>
    <text class="cls-6" transform="translate(233.33 103.44)"><tspan x="0" y="0">②</tspan></text>
    <text class="cls-6" transform="translate(192.27 122.21)"><tspan x="0" y="0">③</tspan></text>
    <text class="cls-6" transform="translate(154.37 153.07)"><tspan x="0" y="0">④</tspan></text>
    <text class="cls-6" transform="translate(129.77 165.69)"><tspan x="0" y="0">⑤</tspan></text>
    <text class="cls-6" transform="translate(105.65 199.3)"><tspan x="0" y="0">⑥</tspan></text>
    <text class="cls-6" transform="translate(87.84 227.66)"><tspan x="0" y="0">⑦</tspan></text>
    <text class="cls-6" transform="translate(74.41 264.4)"><tspan x="0" y="0">⑧</tspan></text>
    <text class="cls-6" transform="translate(41.25 297.87)"><tspan x="0" y="0">⑨</tspan></text>
    <text class="cls-6" transform="translate(19.57 332.04)"><tspan x="0" y="0">⑩</tspan></text>
    <text class="cls-6" transform="translate(2.43 373.05)"><tspan x="0" y="0">⑪</tspan></text>
    <text class="cls-6" transform="translate(19.69 405.53)"><tspan x="0" y="0">⑫</tspan></text>
  </g>
  <g id="_x35_2_x5F_Frags">
    <text class="cls-15" transform="translate(580.87 285.04)"><tspan x="0" y="0">①</tspan></text>
    <text class="cls-15" transform="translate(584.62 259.32)"><tspan x="0" y="0">②</tspan></text>
    <text class="cls-15" transform="translate(583.8 236.87)"><tspan x="0" y="0">③</tspan></text>
    <text class="cls-15" transform="translate(562.03 218.31)"><tspan x="0" y="0">④</tspan></text>
    <text class="cls-15" transform="translate(552.11 200.34)"><tspan x="0" y="0">⑤</tspan></text>
    <text class="cls-15" transform="translate(546.74 155.69)"><tspan x="0" y="0">⑥</tspan></text>
    <text class="cls-15" transform="translate(549.13 118.66)"><tspan x="0" y="0">⑦</tspan></text>
    <text class="cls-15" transform="translate(550.48 83.18)"><tspan x="0" y="0">⑧</tspan></text>
    <text class="cls-15" transform="translate(521.9 60.19)"><tspan x="0" y="0">⑨</tspan></text>
    <text class="cls-15" transform="translate(491.91 60.91)"><tspan x="0" y="0">⑩</tspan></text>
    <text class="cls-15" transform="translate(465.9 72.32)"><tspan x="0" y="0">⑪</tspan></text>
    <text class="cls-15" transform="translate(438.98 75.69)"><tspan x="0" y="0">⑫</tspan></text>
    <text class="cls-15" transform="translate(406.21 77.15)"><tspan x="0" y="0">⑬</tspan></text>
    <text class="cls-15" transform="translate(376.07 77.02)"><tspan x="0" y="0">⑭</tspan></text>
    <text class="cls-15" transform="translate(347.49 79.04)"><tspan x="0" y="0">⑮</tspan></text>
    <text class="cls-15" transform="translate(312.83 68.38)"><tspan x="0" y="0">⑯</tspan></text>
    <text class="cls-15" transform="translate(442.72 103.14)"><tspan x="0" y="0">⑰</tspan></text>
    <text class="cls-15" transform="translate(415.74 115.68)"><tspan x="0" y="0">⑱</tspan></text>
    <text class="cls-15" transform="translate(369.89 131.8)"><tspan x="0" y="0">⑲</tspan></text>
    <text class="cls-15" transform="translate(328.41 125.64)"><tspan x="0" y="0">⑳</tspan></text>
    <text class="cls-15" transform="translate(301.73 100.25)"><tspan x="0" y="0">㉓</tspan></text>
  </g>
  <g id="_x35_3_x5F_Frags">
    <text class="cls-7" transform="translate(582.36 329.13)"><tspan x="0" y="0">①</tspan></text>
    <text class="cls-7" transform="translate(550.61 331.79)"><tspan x="0" y="0">①</tspan></text>
    <text class="cls-7" transform="translate(555.46 290.03)"><tspan x="0" y="0">②</tspan></text>
    <text class="cls-7" transform="translate(547.64 273.87)"><tspan x="0" y="0">③</tspan></text>
    <text class="cls-7" transform="translate(535.05 260.97)"><tspan x="0" y="0">④</tspan></text>
    <text class="cls-7" transform="translate(525.54 275.86)"><tspan x="0" y="0">④</tspan></text>
    <text class="cls-7" transform="translate(533.68 290.03)"><tspan x="0" y="0">③</tspan></text>
    <text class="cls-7" transform="translate(539.7 302.07)"><tspan x="0" y="0">②</tspan></text>
    <text class="cls-7" transform="translate(491.39 248.86)"><tspan x="0" y="0">⑤</tspan></text>
    <text class="cls-7" transform="translate(466.91 235.81)"><tspan x="0" y="0">⑥</tspan></text>
    <text class="cls-7" transform="translate(469.3 212.43)"><tspan x="0" y="0">⑥</tspan></text>
    <text class="cls-7" transform="translate(509.8 221.31)"><tspan x="0" y="0">⑤</tspan></text>
    <text class="cls-7" transform="translate(387.59 199.1)"><tspan x="0" y="0">⑧</tspan></text>
    <text class="cls-7" transform="translate(342.45 184.99)"><tspan x="0" y="0">⑨</tspan></text>
    <text class="cls-7" transform="translate(322.58 158.33)"><tspan x="0" y="0">⑩</tspan></text>
    <text class="cls-7" transform="translate(291.85 131.27)"><tspan x="0" y="0">⑪</tspan></text>
  </g>
  <g id="_x35_4_x5F_Frags">
    <text class="cls-12" transform="translate(511.15 337.98)"><tspan x="0" y="0">①</tspan></text>
    <text class="cls-12" transform="translate(493.95 322.04)"><tspan x="0" y="0">②</tspan></text>
    <text class="cls-12" transform="translate(479.55 307.92)"><tspan x="0" y="0">③</tspan></text>
    <text class="cls-12" transform="translate(464.17 290.95)"><tspan x="0" y="0">④</tspan></text>
    <text class="cls-12" transform="translate(446.49 270.26)"><tspan x="0" y="0">⑤</tspan></text>
    <text class="cls-12" transform="translate(430.29 253.57)"><tspan x="0" y="0">⑥</tspan></text>
    <text class="cls-12" transform="translate(404.51 243.76)"><tspan x="0" y="0">⑦</tspan></text>
    <text class="cls-12" transform="translate(375.46 243.76)"><tspan x="0" y="0">⑧</tspan></text>
    <text class="cls-12" transform="translate(338.16 227.78)"><tspan x="0" y="0">⑨</tspan></text>
    <text class="cls-12" transform="translate(280.06 222.45)"><tspan x="0" y="0">⑩</tspan></text>
    <text class="cls-12" transform="translate(243.95 201.63)"><tspan x="0" y="0">⑪</tspan></text>
  </g>
  <g id="_x35_5_x5F_Frags">
    <text class="cls-26" transform="translate(288.56 236.54)"><tspan x="0" y="0">①</tspan></text>
    <text class="cls-26" transform="translate(262.34 236.54)"><tspan x="0" y="0">②</tspan></text>
    <text class="cls-26" transform="translate(229.44 237.75)"><tspan x="0" y="0">③</tspan></text>
    <text class="cls-26" transform="translate(204.93 238.59)"><tspan x="0" y="0">④</tspan></text>
    <text class="cls-26" transform="translate(177.21 240.83)"><tspan x="0" y="0">⑤</tspan></text>
    <text class="cls-26" transform="translate(147.27 264.4)"><tspan x="0" y="0">⑥</tspan></text>
    <text class="cls-26" transform="translate(131.37 295.21)"><tspan x="0" y="0">⑦</tspan></text>
    <text class="cls-26" transform="translate(120.24 325.01)"><tspan x="0" y="0" xml:space="preserve"> ⑧</tspan></text>
  </g>
  <g id="_x35_6_x5F_Frags">
    <text class="cls-28" transform="translate(271.3 130.46)"><tspan x="0" y="0">①</tspan></text>
    <text class="cls-28" transform="translate(250.04 145.64)"><tspan x="0" y="0">②</tspan></text>
    <text class="cls-28" transform="translate(230.1 166.35)"><tspan x="0" y="0">③</tspan></text>
    <text class="cls-28" transform="translate(205.06 192.81)"><tspan x="0" y="0">④</tspan></text>
    <text class="cls-28" transform="translate(174.52 210.17)"><tspan x="0" y="0">⑤</tspan></text>
    <text class="cls-28" transform="translate(144.51 242.6)"><tspan x="0" y="0">⑥</tspan></text>
    <text class="cls-28" transform="translate(125.14 275.6)"><tspan x="0" y="0">⑦</tspan></text>
    <text class="cls-28" transform="translate(108.76 316.72)"><tspan x="0" y="0">⑧</tspan></text>
  </g>
</svg>